<?xml version="1.0" encoding="UTF-8" standalone="no"?>
<!-- Created with Inkscape (http://www.inkscape.org/) -->

<svg
   xmlns:dc="http://purl.org/dc/elements/1.1/"
   xmlns:cc="http://creativecommons.org/ns#"
   xmlns:rdf="http://www.w3.org/1999/02/22-rdf-syntax-ns#"
   xmlns:svg="http://www.w3.org/2000/svg"
   xmlns="http://www.w3.org/2000/svg"
   xmlns:sodipodi="http://sodipodi.sourceforge.net/DTD/sodipodi-0.dtd"
   xmlns:inkscape="http://www.inkscape.org/namespaces/inkscape"
   width="579.96362mm"
   height="55.736221mm"
   viewBox="0 0 579.96363 55.73622"
   version="1.1"
   id="svg1350"
   inkscape:version="0.92.4 (unknown)"
   sodipodi:docname="cloud2.svg">
  <defs
     id="defs1344">
    <clipPath
       clipPathUnits="userSpaceOnUse"
       id="clipPath56">
      <path
         d="M 0,0 H 500 V 500 H 0 Z"
         id="path54"
         inkscape:connector-curvature="0" />
    </clipPath>
    <clipPath
       clipPathUnits="userSpaceOnUse"
       id="clipPath80">
      <path
         d="M 0,0 H 500 V 500 H 0 Z"
         id="path78"
         inkscape:connector-curvature="0" />
    </clipPath>
    <clipPath
       clipPathUnits="userSpaceOnUse"
       id="clipPath220">
      <path
         d="m 277.897,305.021 h 25.393 v -10.65 h -25.393 z"
         id="path218"
         inkscape:connector-curvature="0" />
    </clipPath>
    <clipPath
       clipPathUnits="userSpaceOnUse"
       id="clipPath236">
      <path
         d="M 311.136,286.507 H 347.27 V 229.15 h -36.134 z"
         id="path234"
         inkscape:connector-curvature="0" />
    </clipPath>
    <clipPath
       clipPathUnits="userSpaceOnUse"
       id="clipPath264">
      <path
         d="m 313.968,287.39 h 14.876 v -5.672 h -14.876 z"
         id="path262"
         inkscape:connector-curvature="0" />
    </clipPath>
    <clipPath
       clipPathUnits="userSpaceOnUse"
       id="clipPath408">
      <path
         d="m 260.292,339.426 h 14.916 v -8.676 h -14.916 z"
         id="path406"
         inkscape:connector-curvature="0" />
    </clipPath>
    <clipPath
       clipPathUnits="userSpaceOnUse"
       id="clipPath436">
      <path
         d="m 307.968,360.035 h 11.778 v -9.547 h -11.778 z"
         id="path434"
         inkscape:connector-curvature="0" />
    </clipPath>
    <clipPath
       clipPathUnits="userSpaceOnUse"
       id="clipPath452">
      <path
         d="m 262.829,283.004 h 48.115 v -63.121 h -48.115 z"
         id="path450"
         inkscape:connector-curvature="0" />
    </clipPath>
    <clipPath
       clipPathUnits="userSpaceOnUse"
       id="clipPath476">
      <path
         d="M 275.615,272.988 H 296.71 V 262.782 H 275.615 Z"
         id="path474"
         inkscape:connector-curvature="0" />
    </clipPath>
    <clipPath
       clipPathUnits="userSpaceOnUse"
       id="clipPath492">
      <path
         d="m 261.187,306.288 h 26.519 v -10.467 h -26.519 z"
         id="path490"
         inkscape:connector-curvature="0" />
    </clipPath>
  </defs>
  <sodipodi:namedview
     id="base"
     pagecolor="#ffffff"
     bordercolor="#666666"
     borderopacity="1.0"
     inkscape:pageopacity="0.0"
     inkscape:pageshadow="2"
     inkscape:zoom="0.40796747"
     inkscape:cx="538.28609"
     inkscape:cy="-266.48851"
     inkscape:document-units="mm"
     inkscape:current-layer="layer1"
     showgrid="false"
     fit-margin-top="0"
     fit-margin-left="0"
     fit-margin-right="0"
     fit-margin-bottom="0"
     inkscape:window-width="1920"
     inkscape:window-height="1015"
     inkscape:window-x="0"
     inkscape:window-y="0"
     inkscape:window-maximized="1"
     inkscape:snap-page="true" />
  <metadata
     id="metadata1347">
    <rdf:RDF>
      <cc:Work
         rdf:about="">
        <dc:format>image/svg+xml</dc:format>
        <dc:type
           rdf:resource="http://purl.org/dc/dcmitype/StillImage" />
        <dc:title></dc:title>
      </cc:Work>
    </rdf:RDF>
  </metadata>
  <g
     inkscape:label="Layer 1"
     inkscape:groupmode="layer"
     id="layer1"
     transform="translate(95.210426,-137.88127)">
    <g
       style="display:inline"
       id="g142"
       transform="matrix(0.35277777,0,0,-0.35277777,303.59656,140.98799)"
       mask="none">
      <path
         style="fill:#80d8d4;fill-opacity:1;fill-rule:nonzero;stroke:none;stroke-width:1.33333325"
         d="m 1493.5234,10.878906 c -25.1656,0.01103 -51.8367,8.260719 -72.414,21.464844 -25.1246,17.006896 -47.317,31.36191 -66.3379,62.451172 -21.2192,29.982828 -42.872,79.692438 -33.8906,115.861328 h 510.0175 c -18.488,-3.74 -36.624,-9.3898 -54.0546,-16.8418 -3.3974,-1.45333 -6.8154,-3.00321 -9.6661,-5.42187 -3.5133,-2.98134 -5.9512,-7.1005 -8.2539,-11.17383 -9.5013,-16.80667 -18.12,-34.60889 -31.6386,-48.07422 -13.516,-13.46667 -33.5214,-21.919 -51.1094,-15.375 -6.4294,-19.510665 -23.138,-34.922296 -42.4473,-39.154296 -19.308,-4.233333 -40.5237,2.865204 -53.9023,18.033204 2.24,-40.652 -33.8941,-75.904917 -72.5235,-80.90625 -4.5087,-0.58375 -9.119,-0.865323 -13.7793,-0.863282 z"
         transform="matrix(0.75000002,0,0,-0.75000002,-1130.4765,8.8064506)"
         id="path144"
         inkscape:connector-curvature="0" />
    </g>
    <g
       transform="matrix(0.35277777,0,0,-0.35277777,227.34876,193.6175)"
       style="display:inline"
       id="g2239"
       mask="none">
      <g
         id="g2215"
         transform="matrix(0.73819489,0,0,0.37457207,-417.42574,9.7250325)"
         style="fill:#d5f6ff;stroke-width:1.90172112">
        <path
           d="m 18.489988,0 c 4.835,31.977 -11.5310004,66.261 -38.871,81.429 -27.34,15.168 -63.653,10.109 -86.245998,-12.015 8.524998,40.46 -14.817,85.62 -51.848,100.313 -17.029,6.755 -35.647,7.499 -53.858,7.283 -10.658,-0.125 -21.855,-0.646 -32.844,-2.371 V -25.963 H 93.822986 c -5.152,7.997 -9.893,16.521 -16.578,23.036 -15.598,15.2 -41.846998,16.508 -58.754998,2.927"
           style="fill:#d5f6ff;fill-opacity:1;fill-rule:nonzero;stroke:none;stroke-width:1.90172112"
           id="path2213"
           inkscape:connector-curvature="0" />
        <path
           inkscape:connector-curvature="0"
           id="path2784"
           style="fill:#d5f6ff;fill-opacity:1;fill-rule:nonzero;stroke:none;stroke-width:1.90172112"
           d="m -508.84396,0 c -4.835,31.977 11.531,66.261 38.871,81.429 27.34,15.168 63.65295,10.109 86.24595,-12.015 -8.525,40.46 14.817,85.62 51.848,100.313 17.029,6.755 35.647,7.499 53.858,7.283 10.658,-0.125 21.855,-0.646 32.844,-2.371 V -25.963 h -338.99995 c 5.152,7.997 9.893,16.521 16.578,23.036 15.598,15.2 41.847,16.508 58.755,2.927" />
      </g>
    </g>
    <g
       id="g2245"
       transform="matrix(0.39280947,0,0,-0.44997481,433.50192,197.99351)"
       style="display:inline;stroke-width:0.83910465">
      <g
         style="fill:#d5f6ff;stroke-width:1.59574306"
         transform="matrix(0.73819489,0,0,0.37457207,-417.42574,9.7250325)"
         id="g2243">
        <path
           style="fill:#d5f6ff;fill-opacity:1;fill-rule:nonzero;stroke:none;stroke-width:1.33333349"
           d="m 1145.8516,84.716797 c -27.7132,6.532442 -43.8012,14.750828 -68.9258,34.544923 -44.2589,34.86872 -69.0777,70.54808 -81.09182,91.39453 h 402.98832 c 5.2989,-20.37037 -12.6364,-42.21055 -42.5996,-51.87305 -29.9633,-9.6625 -69.7607,-6.43939 -94.5215,7.6543 9.3429,-25.77431 -8.0214,-63.9565 -48.6055,-73.316406 -18.6629,-4.30315 -47.2858,-8.541896 -67.2441,-8.404297 z m 252.9707,125.939453 h 60.7109 c -17.3176,-7.8842 -43.4524,-8.05777 -60.7109,0 z"
           transform="matrix(0.91245089,0,0,-1.5697804,-1257.8668,330.68456)"
           id="path2241"
           inkscape:connector-curvature="0" />
      </g>
    </g>
  </g>
</svg>
