<?xml version="1.0" encoding="UTF-8" standalone="no"?>
<!-- Created with Inkscape (http://www.inkscape.org/) -->

<svg
   xmlns:dc="http://purl.org/dc/elements/1.1/"
   xmlns:cc="http://creativecommons.org/ns#"
   xmlns:rdf="http://www.w3.org/1999/02/22-rdf-syntax-ns#"
   xmlns:svg="http://www.w3.org/2000/svg"
   xmlns="http://www.w3.org/2000/svg"
   xmlns:sodipodi="http://sodipodi.sourceforge.net/DTD/sodipodi-0.dtd"
   xmlns:inkscape="http://www.inkscape.org/namespaces/inkscape"
   version="1.1"
   id="svg2"
   xml:space="preserve"
   width="1896.0453"
   height="800"
   viewBox="0 0 1896.0453 800"
   sodipodi:docname="cover.svg"
   inkscape:version="0.92.4 (unknown)"
   inkscape:export-filename="/home/rafaelcarvalho/apache/elabore/public/images/cover.png"
   inkscape:export-xdpi="96"
   inkscape:export-ydpi="96"><metadata
     id="metadata8"><rdf:RDF><cc:Work
         rdf:about=""><dc:format>image/svg+xml</dc:format><dc:type
           rdf:resource="http://purl.org/dc/dcmitype/StillImage" /><dc:title></dc:title></cc:Work></rdf:RDF></metadata><defs
     id="defs6"><clipPath
       clipPathUnits="userSpaceOnUse"
       id="clipPath56"><path
         d="M 0,0 H 500 V 500 H 0 Z"
         id="path54"
         inkscape:connector-curvature="0" /></clipPath><clipPath
       clipPathUnits="userSpaceOnUse"
       id="clipPath80"><path
         d="M 0,0 H 500 V 500 H 0 Z"
         id="path78"
         inkscape:connector-curvature="0" /></clipPath><clipPath
       clipPathUnits="userSpaceOnUse"
       id="clipPath96"><path
         d="M 0,0 H 500 V 500 H 0 Z"
         id="path94"
         inkscape:connector-curvature="0" /></clipPath><clipPath
       clipPathUnits="userSpaceOnUse"
       id="clipPath124"><path
         d="M 0,0 H 500 V 500 H 0 Z"
         id="path122"
         inkscape:connector-curvature="0" /></clipPath><clipPath
       clipPathUnits="userSpaceOnUse"
       id="clipPath140"><path
         d="M 0,500 H 500 V 0 H 0 Z"
         id="path138"
         inkscape:connector-curvature="0" /></clipPath><clipPath
       clipPathUnits="userSpaceOnUse"
       id="clipPath220"><path
         d="m 277.897,305.021 h 25.393 v -10.65 h -25.393 z"
         id="path218"
         inkscape:connector-curvature="0" /></clipPath><clipPath
       clipPathUnits="userSpaceOnUse"
       id="clipPath236"><path
         d="M 311.136,286.507 H 347.27 V 229.15 h -36.134 z"
         id="path234"
         inkscape:connector-curvature="0" /></clipPath><clipPath
       clipPathUnits="userSpaceOnUse"
       id="clipPath264"><path
         d="m 313.968,287.39 h 14.876 v -5.672 h -14.876 z"
         id="path262"
         inkscape:connector-curvature="0" /></clipPath><clipPath
       clipPathUnits="userSpaceOnUse"
       id="clipPath408"><path
         d="m 260.292,339.426 h 14.916 v -8.676 h -14.916 z"
         id="path406"
         inkscape:connector-curvature="0" /></clipPath><clipPath
       clipPathUnits="userSpaceOnUse"
       id="clipPath436"><path
         d="m 307.968,360.035 h 11.778 v -9.547 h -11.778 z"
         id="path434"
         inkscape:connector-curvature="0" /></clipPath><clipPath
       clipPathUnits="userSpaceOnUse"
       id="clipPath452"><path
         d="m 262.829,283.004 h 48.115 v -63.121 h -48.115 z"
         id="path450"
         inkscape:connector-curvature="0" /></clipPath><clipPath
       clipPathUnits="userSpaceOnUse"
       id="clipPath476"><path
         d="M 275.615,272.988 H 296.71 V 262.782 H 275.615 Z"
         id="path474"
         inkscape:connector-curvature="0" /></clipPath><clipPath
       clipPathUnits="userSpaceOnUse"
       id="clipPath492"><path
         d="m 261.187,306.288 h 26.519 v -10.467 h -26.519 z"
         id="path490"
         inkscape:connector-curvature="0" /></clipPath><clipPath
       clipPathUnits="userSpaceOnUse"
       id="clipPath580"><path
         d="M 0,500 H 500 V 0 H 0 Z"
         id="path578"
         inkscape:connector-curvature="0" /></clipPath><clipPath
       clipPathUnits="userSpaceOnUse"
       id="clipPath632"><path
         d="M 0,500 H 500 V 0 H 0 Z"
         id="path630"
         inkscape:connector-curvature="0" /></clipPath></defs><sodipodi:namedview
     pagecolor="#ffffff"
     bordercolor="#666666"
     borderopacity="1"
     objecttolerance="10"
     gridtolerance="10"
     guidetolerance="10"
     inkscape:pageopacity="0"
     inkscape:pageshadow="2"
     inkscape:window-width="1920"
     inkscape:window-height="1015"
     id="namedview4"
     showgrid="false"
     showborder="true"
     fit-margin-top="0"
     fit-margin-left="0"
     fit-margin-right="0"
     fit-margin-bottom="0"
     inkscape:snap-bbox="true"
     inkscape:bbox-paths="true"
     inkscape:snap-page="true"
     inkscape:zoom="0.50148557"
     inkscape:cx="732.53967"
     inkscape:cy="441.08553"
     inkscape:window-x="0"
     inkscape:window-y="0"
     inkscape:window-maximized="1"
     inkscape:current-layer="g10"
     showguides="true"
     inkscape:guide-bbox="true"><sodipodi:guide
       position="590.24631,2.4023438e-05"
       orientation="0,1"
       id="guide1838"
       inkscape:locked="false" /></sodipodi:namedview><g
     id="g10"
     inkscape:groupmode="layer"
     inkscape:label="413203-PDJUEG-555"
     transform="matrix(1.3333333,0,0,-1.3333333,1229.3786,799.99999)"
     style="display:inline"><path
       d="M -922.03399,0 H 500.00004 V 600.00001 H -922.03399 Z"
       style="fill:#37abc8;fill-opacity:1;fill-rule:nonzero;stroke:none;stroke-width:1"
       id="path12"
       inkscape:connector-curvature="0"
       mask="none" /><g
       id="g2173"
       transform="translate(455.51048,-8.2343536)"><text
   y="-291.96875"
   x="-340.58224"
   id="text16"
   style="font-variant:normal;font-weight:500;font-stretch:normal;font-size:85.99591064px;font-family:'Mathlete Bulky';-inkscape-font-specification:Mathlete-Bulky;writing-mode:lr-tb;fill:#dff4f3;fill-opacity:1;fill-rule:nonzero;stroke:none"
   transform="matrix(0.93519679,0.35412846,0.35412846,-0.93519679,0,0)"><tspan
     id="tspan14"
     y="-291.96875"
     x="-340.58224">o</tspan></text>


<text
   y="-388.1889"
   x="-396.73309"
   id="text20"
   style="font-variant:normal;font-weight:500;font-stretch:normal;font-size:56.79961395px;font-family:'Mathlete Bulky';-inkscape-font-specification:Mathlete-Bulky;writing-mode:lr-tb;fill:#dff4f3;fill-opacity:1;fill-rule:nonzero;stroke:none"
   transform="matrix(0.93519652,0.35412918,0.35412918,-0.93519652,0,0)"><tspan
     id="tspan18"
     y="-388.1889"
     x="-396.73309">r</tspan></text>


<text
   y="-486.65131"
   x="-275.1203"
   id="text24"
   style="font-variant:normal;font-weight:500;font-stretch:normal;font-size:119.16114044px;font-family:'Mathlete Bulky';-inkscape-font-specification:Mathlete-Bulky;writing-mode:lr-tb;fill:#dff4f3;fill-opacity:1;fill-rule:nonzero;stroke:none"
   transform="matrix(0.93519664,0.35412886,0.35412886,-0.93519664,0,0)"><tspan
     id="tspan22"
     y="-486.65131"
     x="-275.1203">A</tspan></text>


<text
   y="-139.58498"
   x="-423.28262"
   id="text28"
   style="font-variant:normal;font-weight:500;font-stretch:normal;font-size:96.5111084px;font-family:'Mathlete Bulky';-inkscape-font-specification:Mathlete-Bulky;writing-mode:lr-tb;fill:#dff4f3;fill-opacity:1;fill-rule:nonzero;stroke:none;stroke-width:0.9858827"
   transform="matrix(0.97973178,-0.27143197,-0.26262055,-0.94792922,0,0)"><tspan
     style="stroke-width:0.9858827"
     id="tspan26"
     y="-139.58498"
     x="-423.28262">b</tspan></text>


<text
   y="-649.57294"
   x="-307.36093"
   id="text32"
   style="font-variant:normal;font-weight:500;font-stretch:normal;font-size:67.99346161px;font-family:'Mathlete Bulky';-inkscape-font-specification:Mathlete-Bulky;writing-mode:lr-tb;fill:#dff4f3;fill-opacity:1;fill-rule:nonzero;stroke:none"
   transform="matrix(0.72807148,0.68550121,0.68550121,-0.72807148,0,0)"><tspan
     id="tspan30"
     y="-649.57294"
     x="-307.36093">e</tspan></text>


<text
   y="-61.264"
   x="-508.55072"
   id="text36"
   style="font-variant:normal;font-weight:500;font-stretch:normal;font-size:69.86358643px;font-family:'Mathlete Bulky';-inkscape-font-specification:Mathlete-Bulky;writing-mode:lr-tb;fill:#dff4f3;fill-opacity:1;fill-rule:nonzero;stroke:none"
   transform="matrix(0.89741313,-0.4411912,-0.4411912,-0.89741313,0,0)"><tspan
     id="tspan34"
     y="-61.264"
     x="-508.55072">c</tspan></text>


<text
   y="-455.96957"
   x="-442.51306"
   id="text40"
   style="font-variant:normal;font-weight:500;font-stretch:normal;font-size:150.53593445px;font-family:'Mathlete Bulky';-inkscape-font-specification:Mathlete-Bulky;writing-mode:lr-tb;fill:#dff4f3;fill-opacity:1;fill-rule:nonzero;stroke:none"
   transform="matrix(0.93519668,0.35412875,0.35412875,-0.93519668,0,0)"><tspan
     id="tspan38"
     y="-455.96957"
     x="-442.51306">d</tspan></text>


<text
   y="-528.44098"
   x="-178.73297"
   id="text44"
   style="font-variant:normal;font-weight:500;font-stretch:normal;font-size:88.79131317px;font-family:'Mathlete Bulky';-inkscape-font-specification:Mathlete-Bulky;writing-mode:lr-tb;fill:#dff4f3;fill-opacity:1;fill-rule:nonzero;stroke:none"
   transform="matrix(0.80833805,0.5887186,0.5887186,-0.80833805,0,0)"><tspan
     id="tspan42"
     y="-528.44098"
     x="-178.73297">f</tspan></text>


<text
   y="490.97726"
   x="-315.00262"
   id="text48"
   style="font-variant:normal;font-weight:500;font-stretch:normal;font-size:68.93439484px;font-family:'Mathlete Bulky';-inkscape-font-specification:Mathlete-Bulky;writing-mode:lr-tb;fill:#dff4f3;fill-opacity:1;fill-rule:nonzero;stroke:none"
   transform="matrix(0.2017498,-0.97943709,-0.97943709,-0.2017498,0,0)"><tspan
     id="tspan46"
     y="490.97726"
     x="-315.00262">g</tspan></text>


<g
   transform="translate(-691.16273,36.132247)"
   id="g50"><g
     clip-path="url(#clipPath56)"
     id="g52"><text
   id="text60"
   style="font-variant:normal;font-weight:500;font-stretch:normal;font-size:119.16094971px;font-family:'Mathlete Bulky';-inkscape-font-specification:Mathlete-Bulky;writing-mode:lr-tb;fill:#dff4f3;fill-opacity:1;fill-rule:nonzero;stroke:none"
   transform="matrix(0.82770825,0.56115867,0.56115867,-0.82770825,17.9057,347.024)"><tspan
     id="tspan58"
     y="0"
     x="0"
     style="font-style:normal;font-variant:normal;font-weight:normal;font-stretch:normal;font-family:'Poiret One';-inkscape-font-specification:'Poiret One'">h</tspan></text>


</g></g><text
   y="575.44733"
   x="-393.62842"
   id="text64"
   style="font-variant:normal;font-weight:500;font-stretch:normal;font-size:48.06634521px;font-family:'Mathlete Bulky';-inkscape-font-specification:Mathlete-Bulky;writing-mode:lr-tb;fill:#dff4f3;fill-opacity:1;fill-rule:nonzero;stroke:none"
   transform="matrix(-0.11783088,-0.99303368,-0.99303368,0.11783088,0,0)"><tspan
     id="tspan62"
     y="575.44733"
     x="-393.62842">i</tspan></text>


<text
   y="116.5826"
   x="-506.63449"
   id="text68"
   style="font-variant:normal;font-weight:500;font-stretch:normal;font-size:86.18939972px;font-family:'Mathlete Bulky';-inkscape-font-specification:Mathlete-Bulky;writing-mode:lr-tb;fill:#dff4f3;fill-opacity:1;fill-rule:nonzero;stroke:none"
   transform="matrix(0.8128517,-0.5824707,-0.5824707,-0.8128517,0,0)"><tspan
     id="tspan66"
     y="116.5826"
     x="-506.63449">j</tspan></text>


<text
   y="-381.14145"
   x="-545.03729"
   id="text72"
   style="font-variant:normal;font-weight:500;font-stretch:normal;font-size:119.16114044px;font-family:'Mathlete Bulky';-inkscape-font-specification:Mathlete-Bulky;writing-mode:lr-tb;fill:#dff4f3;fill-opacity:1;fill-rule:nonzero;stroke:none"
   transform="matrix(0.93519664,0.35412886,0.35412886,-0.93519664,0,0)"><tspan
     id="tspan70"
     y="-381.14145"
     x="-545.03729">k</tspan></text>


<g
   transform="translate(-655.14405,-179.56654)"
   id="g74"><g
     clip-path="url(#clipPath80)"
     id="g76"><text
   id="text84"
   style="font-variant:normal;font-weight:500;font-stretch:normal;font-size:119.16114044px;font-family:'Mathlete Bulky';-inkscape-font-specification:Mathlete-Bulky;writing-mode:lr-tb;fill:#dff4f3;fill-opacity:1;fill-rule:nonzero;stroke:none"
   transform="matrix(0.93519664,0.35412886,0.35412886,-0.93519664,194.2022,441.8753)"><tspan
     id="tspan82"
     y="0"
     x="0">l</tspan></text>


</g></g><text
   y="-278.57501"
   x="-278.05286"
   id="text88"
   style="font-variant:normal;font-weight:500;font-stretch:normal;font-size:87.57772827px;font-family:'Mathlete Bulky';-inkscape-font-specification:Mathlete-Bulky;writing-mode:lr-tb;fill:#dff4f3;fill-opacity:1;fill-rule:nonzero;stroke:none"
   transform="matrix(0.93519665,0.35412884,0.35412884,-0.93519665,0,0)"><tspan
     id="tspan86"
     y="-278.57501"
     x="-278.05286">m</tspan></text>


<text
   y="-418.93164"
   x="-478.74615"
   id="text104"
   style="font-variant:normal;font-weight:500;font-stretch:normal;font-size:39.27099609px;font-family:'Mathlete Bulky';-inkscape-font-specification:Mathlete-Bulky;writing-mode:lr-tb;fill:#dff4f3;fill-opacity:1;fill-rule:nonzero;stroke:none"
   transform="matrix(0.93519657,0.35412904,0.35412904,-0.93519657,0,0)"><tspan
     id="tspan102"
     y="-418.93164"
     x="-478.74615">Q</tspan></text>


<text
   y="-39.854671"
   x="-716.77112"
   id="text108"
   style="font-variant:normal;font-weight:500;font-stretch:normal;font-size:50.38955307px;font-family:'Mathlete Bulky';-inkscape-font-specification:Mathlete-Bulky;writing-mode:lr-tb;fill:#dff4f3;fill-opacity:1;fill-rule:nonzero;stroke:none"
   transform="matrix(0.88346882,-0.46848996,-0.46848996,-0.88346882,0,0)"><tspan
     id="tspan106"
     y="-39.854671"
     x="-716.77112">s</tspan></text>


<text
   y="-317.66086"
   x="-387.34601"
   id="text116"
   style="font-variant:normal;font-weight:500;font-stretch:normal;font-size:58.76634598px;font-family:'Mathlete Bulky';-inkscape-font-specification:Mathlete-Bulky;writing-mode:lr-tb;fill:#dff4f3;fill-opacity:1;fill-rule:nonzero;stroke:none"
   transform="matrix(0.99989371,-0.01457977,-0.01457977,-0.99989371,0,0)"><tspan
     id="tspan114"
     y="-317.66086"
     x="-387.34601">W</tspan></text>


</g><g
       id="g142"
       transform="translate(199.59011,153.17327)"
       mask="none"><path
         d="m 0,0 c 28.972,-3.751 56.073,-30.191 54.393,-60.68 10.034,11.376 25.946,16.7 40.427,13.525 14.482,-3.174 27.013,-14.733 31.835,-29.366 13.191,4.908 28.195,-1.431 38.332,-11.531 10.139,-10.099 16.604,-23.451 23.73,-36.056 1.727,-3.055 3.555,-6.144 6.19,-8.38 2.138,-1.814 4.702,-2.977 7.25,-4.067 13.073,-5.589 26.675,-9.826 40.541,-12.631 -65.244,-0.767 -130.489,-1.534 -195.734,-2.301 -44.758,-0.527 -89.56,-1.052 -134.244,1.689 -7.134,27.175 -14.197,56.58 -4.598,82.912 3.571,9.796 7.465,19.429 10.914,29.214 3.747,10.63 9.542,14.888 19.537,21.302 C -43.136,-4.633 -21.642,2.802 0,0"
         style="fill:#80d8d4;fill-opacity:1;fill-rule:nonzero;stroke:none"
         id="path144"
         inkscape:connector-curvature="0" /></g><g
       id="g2121"
       transform="matrix(1.3471747,0,0,1.3471747,455.43136,-209.99656)"
       style="stroke-width:0.74229419"><text
   y="-284.5856"
   x="27.497656"
   id="text112"
   style="font-variant:normal;font-weight:500;font-stretch:normal;font-size:45.55823135px;font-family:'Mathlete Bulky';-inkscape-font-specification:Mathlete-Bulky;writing-mode:lr-tb;fill:#dff4f3;fill-opacity:1;fill-rule:nonzero;stroke:none;stroke-width:0.74229419"
   transform="matrix(0.93519651,0.35412919,0.35412919,-0.93519651,0,0)"><tspan
     id="tspan110"
     y="-284.5856"
     x="27.497656"
     style="stroke-width:0.74229419">v</tspan></text>


<g
   transform="translate(-70.09318,239.98387)"
   id="g146"
   style="stroke-width:0.74229419"><path
     inkscape:connector-curvature="0"
     id="path148"
     style="fill:#5e3120;fill-opacity:1;fill-rule:nonzero;stroke:none;stroke-width:0.74229419"
     d="M 0,0 63.256,73.284 -138.875,16.707 -187.474,-38.834 Z" /></g><g
   transform="translate(-70.09318,239.98387)"
   id="g150"
   style="stroke-width:0.74229419"><path
     inkscape:connector-curvature="0"
     id="path152"
     style="fill:none;stroke:#5e3120;stroke-width:3.43533731;stroke-linecap:round;stroke-linejoin:round;stroke-miterlimit:10;stroke-dasharray:none;stroke-opacity:1"
     d="M 0,0 63.256,73.284 -138.875,16.707 -187.474,-38.834 Z" /></g><g
   transform="translate(-19.37248,316.54687)"
   id="g154"
   style="stroke-width:0.74229419"><path
     inkscape:connector-curvature="0"
     id="path156"
     style="fill:#c9c7b8;fill-opacity:1;fill-rule:nonzero;stroke:none;stroke-width:0.74229419"
     d="m 0,0 -170.537,-46.968 44.219,-17.462 52.87,-16.793 6.465,-2.695" /></g><g
   transform="translate(-87.51308,233.64597)"
   id="g158"
   style="stroke-width:0.74229419"><path
     inkscape:connector-curvature="0"
     id="path160"
     style="fill:#ededdd;fill-opacity:1;fill-rule:nonzero;stroke:none;stroke-width:0.74229419"
     d="m 0,0 c 0,0 -1.865,4.12 22.435,27.128 l 45.706,55.773 c 0,0 2.899,0.046 4.387,-5.473 L 12.035,1.892 Z" /></g><g
   transform="translate(-87.99648,235.32367)"
   id="g162"
   style="stroke-width:0.74229419"><path
     inkscape:connector-curvature="0"
     id="path164"
     style="fill:#f4f4ea;fill-opacity:1;fill-rule:nonzero;stroke:none;stroke-width:0.74229419"
     d="m 0,0 c 0,0 62.26,73.702 62.26,84.694 0,0 -152.639,-47.35 -161.418,-48.02 l 28.929,-20.249 z" /></g><g
   transform="translate(-75.90078,243.08837)"
   id="g166"
   style="stroke-width:0.74229419"><path
     inkscape:connector-curvature="0"
     id="path168"
     style="fill:#c9c7b8;fill-opacity:1;fill-rule:nonzero;stroke:none;stroke-width:0.74229419"
     d="m 0,0 c 0,0 0.859,1.115 2.363,3.067 1.517,1.943 3.625,4.765 6.26,8.067 5.249,6.62 12.248,15.446 19.248,24.272 7.127,8.723 14.254,17.447 19.6,23.989 2.665,3.278 4.969,5.941 6.543,7.838 l 2.492,2.965 0.045,-0.036 L 0.045,-0.037 Z" /></g><g
   transform="translate(-18.00038,311.32127)"
   id="g170"
   style="stroke-width:0.74229419"><path
     inkscape:connector-curvature="0"
     id="path172"
     style="fill:#c9c7b8;fill-opacity:1;fill-rule:nonzero;stroke:none;stroke-width:0.74229419"
     d="m 0,0 c 0,0 -0.89,-1.134 -2.447,-3.118 -1.57,-1.975 -3.753,-4.842 -6.479,-8.199 -5.43,-6.728 -12.671,-15.7 -19.912,-24.672 -7.368,-8.867 -14.736,-17.734 -20.262,-24.385 -2.754,-3.332 -5.134,-6.04 -6.76,-7.967 -1.638,-1.918 -2.575,-3.015 -2.575,-3.015 l -0.044,0.037 58.434,71.356 z" /></g><g
   transform="translate(-73.39398,241.54537)"
   id="g174"
   style="stroke-width:0.74229419"><path
     inkscape:connector-curvature="0"
     id="path176"
     style="fill:#c9c7b8;fill-opacity:1;fill-rule:nonzero;stroke:none;stroke-width:0.74229419"
     d="m 0,0 c 0,0 0.809,1.034 2.224,2.845 1.426,1.801 3.407,4.42 5.888,7.477 4.943,6.132 11.533,14.309 18.122,22.485 6.717,8.071 13.435,16.143 18.472,22.197 2.511,3.034 4.687,5.493 6.171,7.247 1.496,1.744 2.351,2.741 2.351,2.741 L 53.272,64.955 0.045,-0.037 Z" /></g><g
   transform="translate(-46.15958,304.39747)"
   id="g178"
   style="stroke-width:0.74229419"><path
     inkscape:connector-curvature="0"
     id="path180"
     style="fill:#afada1;fill-opacity:1;fill-rule:nonzero;stroke:none;stroke-width:0.74229419"
     d="m 0,0 c -0.001,0 -0.368,-0.805 -1.049,-2.191 -0.334,-0.697 -0.774,-1.523 -1.261,-2.482 -0.473,-0.966 -1.06,-2.026 -1.755,-3.158 -0.677,-1.14 -1.406,-2.38 -2.225,-3.661 -0.207,-0.319 -0.416,-0.642 -0.628,-0.969 -0.23,-0.315 -0.463,-0.634 -0.698,-0.956 -0.472,-0.644 -0.954,-1.301 -1.444,-1.969 -0.972,-1.339 -1.976,-2.722 -2.997,-4.128 -1.017,-1.407 -2.027,-2.855 -3.013,-4.322 -1.033,-1.432 -2.087,-2.85 -3.138,-4.237 -1.032,-1.402 -2.152,-2.697 -3.204,-3.977 -0.533,-0.634 -1.059,-1.257 -1.571,-1.867 -0.509,-0.615 -1.026,-1.2 -1.554,-1.746 -1.033,-1.114 -2.031,-2.146 -2.951,-3.099 -0.909,-0.964 -1.773,-1.819 -2.569,-2.546 -0.786,-0.735 -1.471,-1.376 -2.036,-1.904 -1.145,-1.037 -1.801,-1.628 -1.801,-1.628 l -0.07,0.07 c 0,0 0.577,0.669 1.588,1.838 0.514,0.574 1.138,1.272 1.854,2.073 0.716,0.799 1.541,1.685 2.394,2.692 0.865,0.997 1.8,2.078 2.813,3.199 1.019,1.116 2.016,2.359 3.114,3.589 1.085,1.241 2.228,2.505 3.307,3.859 1.102,1.335 2.239,2.679 3.388,4.016 1.096,1.377 2.167,2.776 3.198,4.17 1.056,1.376 1.938,2.842 2.801,4.249 0.855,1.414 1.726,2.751 2.475,4.061 0.77,1.298 1.546,2.496 2.256,3.607 0.725,1.099 1.331,2.149 1.896,3.064 0.567,0.914 1.044,1.72 1.466,2.368 0.83,1.302 1.327,2.034 1.326,2.034 z" /></g><g
   transform="translate(-62.01208,300.17377)"
   id="g182"
   style="stroke-width:0.74229419"><path
     inkscape:connector-curvature="0"
     id="path184"
     style="fill:#afada1;fill-opacity:1;fill-rule:nonzero;stroke:none;stroke-width:0.74229419"
     d="m 0,0 c 0,0 -0.35,-0.935 -1.002,-2.553 -0.321,-0.812 -0.742,-1.782 -1.213,-2.902 -0.555,-1.086 -1.225,-2.292 -1.949,-3.612 -0.376,-0.652 -0.71,-1.37 -1.162,-2.042 -0.448,-0.675 -0.93,-1.361 -1.421,-2.068 -0.497,-0.703 -1.014,-1.421 -1.554,-2.145 -0.537,-0.725 -1.199,-1.382 -1.81,-2.092 -1.262,-1.4 -2.522,-2.843 -3.766,-4.359 -0.618,-0.761 -1.241,-1.528 -1.866,-2.298 -0.643,-0.761 -1.132,-1.631 -1.699,-2.445 -1.082,-1.668 -2.204,-3.289 -3.215,-4.973 -1.044,-1.657 -2.072,-3.289 -3.066,-4.867 -1,-1.578 -1.966,-3.111 -2.926,-4.523 -0.954,-1.422 -1.834,-2.76 -2.626,-4.018 -0.376,-0.638 -0.736,-1.25 -1.078,-1.832 -0.319,-0.594 -0.623,-1.157 -0.908,-1.687 -0.256,-0.543 -0.495,-1.053 -0.717,-1.524 -0.217,-0.474 -0.366,-0.928 -0.537,-1.326 -0.35,-0.796 -0.5,-1.461 -0.651,-1.902 -0.143,-0.445 -0.219,-0.682 -0.219,-0.682 l -0.097,0.019 c 0,0 0.045,0.247 0.13,0.706 0.101,0.458 0.19,1.148 0.459,1.985 0.214,0.856 0.598,1.851 1.045,2.996 0.254,0.558 0.525,1.15 0.81,1.776 0.32,0.608 0.657,1.246 1.009,1.912 0.739,1.308 1.572,2.716 2.508,4.149 0.925,1.444 1.895,2.958 2.927,4.513 1.038,1.553 2.112,3.159 3.201,4.791 1.071,1.64 2.305,3.233 3.517,4.821 1.163,1.631 2.505,3.101 3.762,4.607 1.259,1.502 2.464,3.028 3.586,4.501 0.551,0.748 1.156,1.435 1.636,2.19 0.476,0.759 0.952,1.492 1.421,2.202 0.475,0.705 0.933,1.393 1.395,2.047 0.466,0.652 0.808,1.343 1.197,1.974 0.748,1.278 1.428,2.454 2.07,3.48 0.555,1.08 1.014,2.034 1.426,2.804 0.808,1.546 1.293,2.419 1.293,2.419 z" /></g><g
   transform="translate(-73.62638,296.63577)"
   id="g186"
   style="stroke-width:0.74229419"><path
     inkscape:connector-curvature="0"
     id="path188"
     style="fill:#afada1;fill-opacity:1;fill-rule:nonzero;stroke:none;stroke-width:0.74229419"
     d="m 0,0 c 0,0 -0.282,-0.792 -0.775,-2.179 -0.237,-0.696 -0.713,-1.476 -1.163,-2.415 -0.473,-0.929 -1.14,-1.884 -1.836,-2.951 -0.753,-1.021 -1.551,-2.15 -2.502,-3.245 -0.912,-1.132 -1.953,-2.248 -3.012,-3.413 -1.078,-1.148 -2.163,-2.352 -3.264,-3.575 -0.533,-0.626 -1.07,-1.258 -1.609,-1.891 -0.547,-0.634 -1.114,-1.257 -1.611,-1.924 -0.511,-0.662 -1.022,-1.324 -1.531,-1.983 -0.507,-0.662 -0.929,-1.38 -1.393,-2.06 -0.441,-0.697 -0.907,-1.372 -1.283,-2.088 -0.387,-0.71 -0.746,-1.425 -1.105,-2.121 -0.756,-1.375 -1.279,-2.809 -1.929,-4.086 -0.609,-1.299 -1.134,-2.549 -1.662,-3.686 -0.511,-1.142 -0.903,-2.222 -1.318,-3.154 -0.423,-0.931 -0.685,-1.781 -0.959,-2.462 -0.525,-1.37 -0.85,-2.149 -0.85,-2.149 l -0.095,0.027 c 0,0 0.182,0.82 0.545,2.251 0.181,0.716 0.405,1.585 0.744,2.555 0.326,0.974 0.681,2.082 1.149,3.257 0.507,1.16 0.999,2.445 1.655,3.739 0.337,0.643 0.691,1.3 1.065,1.963 0.359,0.672 0.751,1.342 1.184,2.006 0.842,1.339 1.684,2.733 2.598,4.115 0.855,1.418 1.82,2.798 2.752,4.211 0.928,1.424 1.967,2.713 2.981,4.05 1.061,1.278 2.125,2.516 3.165,3.698 1.037,1.177 2.038,2.316 2.988,3.396 0.958,1.071 1.798,2.126 2.594,3.088 0.388,0.489 0.719,0.984 1.057,1.442 0.321,0.466 0.68,0.881 0.924,1.318 0.517,0.862 1.029,1.581 1.353,2.244 0.669,1.312 1.051,2.061 1.051,2.061 z" /></g><g
   transform="translate(-86.69868,291.50287)"
   id="g190"
   style="stroke-width:0.74229419"><path
     inkscape:connector-curvature="0"
     id="path192"
     style="fill:#afada1;fill-opacity:1;fill-rule:nonzero;stroke:none;stroke-width:0.74229419"
     d="m 0,0 c 0,0 -0.285,-0.593 -0.822,-1.608 -0.262,-0.511 -0.615,-1.111 -1,-1.81 -0.197,-0.347 -0.397,-0.723 -0.627,-1.105 -0.253,-0.373 -0.519,-0.764 -0.796,-1.172 -0.571,-0.805 -1.185,-1.685 -1.87,-2.588 -0.676,-0.913 -1.502,-1.766 -2.299,-2.705 -0.817,-0.92 -1.636,-1.888 -2.419,-2.91 -0.784,-1.021 -1.558,-2.076 -2.305,-3.15 -0.711,-1.092 -1.468,-2.172 -2.156,-3.246 -0.722,-1.056 -1.373,-2.134 -2.016,-3.167 -0.597,-1.058 -1.223,-2.054 -1.743,-3.037 -0.527,-0.978 -1.045,-1.895 -1.446,-2.779 -0.21,-0.438 -0.411,-0.858 -0.603,-1.258 -0.159,-0.412 -0.331,-0.795 -0.483,-1.16 -0.321,-0.724 -0.574,-1.368 -0.748,-1.91 -0.39,-1.077 -0.612,-1.692 -0.612,-1.692 l -0.098,0.021 c 0,0 0.106,0.646 0.327,1.781 0.086,0.576 0.286,1.246 0.522,2.017 0.116,0.386 0.23,0.801 0.373,1.23 0.166,0.42 0.342,0.863 0.524,1.324 0.191,0.457 0.362,0.948 0.591,1.431 0.237,0.481 0.481,0.976 0.733,1.487 0.242,0.516 0.531,1.022 0.84,1.532 0.306,0.512 0.603,1.045 0.944,1.56 0.696,1.023 1.389,2.096 2.176,3.129 0.764,1.056 1.598,2.053 2.44,3.068 0.862,0.99 1.697,1.999 2.497,3.009 0.8,1.011 1.544,2.038 2.237,3.051 0.7,1.005 1.378,1.976 2.02,2.898 0.639,0.914 1.279,1.753 1.864,2.531 0.298,0.388 0.583,0.759 0.853,1.112 0.246,0.374 0.498,0.717 0.726,1.045 0.463,0.65 0.852,1.227 1.198,1.686 0.683,0.923 1.094,1.438 1.094,1.438 z" /></g><g
   transform="translate(-99.54828,287.54537)"
   id="g194"
   style="stroke-width:0.74229419"><path
     inkscape:connector-curvature="0"
     id="path196"
     style="fill:#afada1;fill-opacity:1;fill-rule:nonzero;stroke:none;stroke-width:0.74229419"
     d="m 0,0 c 0,0 -0.288,-0.461 -0.817,-1.249 -0.537,-0.78 -1.3,-1.898 -2.276,-3.192 -0.481,-0.653 -1.002,-1.36 -1.578,-2.087 -0.586,-0.724 -1.083,-1.556 -1.687,-2.36 -0.592,-0.813 -1.204,-1.653 -1.825,-2.508 -0.63,-0.848 -1.285,-1.702 -1.96,-2.546 -0.594,-0.898 -1.195,-1.794 -1.725,-2.714 -0.539,-0.913 -1.028,-1.838 -1.47,-2.748 -0.437,-0.912 -0.911,-1.764 -1.277,-2.616 -0.384,-0.841 -0.786,-1.617 -1.152,-2.335 -1.483,-2.865 -2.696,-4.686 -2.696,-4.686 L -18.555,-29 c 0,0 0.677,2.062 2.028,5.023 0.343,0.737 0.709,1.54 1.136,2.367 0.204,0.419 0.458,0.824 0.744,1.225 0.274,0.406 0.554,0.822 0.839,1.244 0.58,0.837 1.146,1.72 1.678,2.641 0.542,0.916 1.03,1.885 1.526,2.852 0.551,0.932 1.122,1.856 1.699,2.756 0.586,0.896 1.163,1.778 1.721,2.63 0.286,0.423 0.566,0.839 0.841,1.245 0.27,0.412 0.551,0.799 0.862,1.144 0.59,0.715 1.172,1.373 1.71,1.98 1.06,1.225 1.994,2.206 2.644,2.895 0.658,0.682 1.049,1.06 1.049,1.06 z" /></g><g
   transform="translate(-112.23668,285.14597)"
   id="g198"
   style="stroke-width:0.74229419"><path
     inkscape:connector-curvature="0"
     id="path200"
     style="fill:#afada1;fill-opacity:1;fill-rule:nonzero;stroke:none;stroke-width:0.74229419"
     d="m 0,0 c 0,0 -0.288,-0.461 -0.817,-1.249 -0.537,-0.78 -1.3,-1.898 -2.276,-3.192 -0.481,-0.653 -1.002,-1.36 -1.578,-2.087 -0.586,-0.724 -1.083,-1.556 -1.688,-2.36 -0.591,-0.813 -1.203,-1.653 -1.824,-2.508 -0.63,-0.848 -1.286,-1.702 -1.961,-2.546 -0.593,-0.898 -1.194,-1.794 -1.724,-2.714 -0.54,-0.914 -1.029,-1.838 -1.47,-2.748 -0.438,-0.912 -0.912,-1.764 -1.277,-2.616 -0.385,-0.841 -0.787,-1.617 -1.153,-2.335 -1.483,-2.865 -2.696,-4.686 -2.696,-4.686 L -18.556,-29 c 0,0 0.677,2.062 2.029,5.023 0.343,0.737 0.709,1.54 1.136,2.367 0.203,0.419 0.458,0.824 0.743,1.225 0.275,0.406 0.555,0.822 0.84,1.243 0.58,0.838 1.146,1.721 1.678,2.642 0.542,0.916 1.03,1.885 1.525,2.852 0.551,0.932 1.123,1.856 1.7,2.756 0.586,0.896 1.163,1.778 1.721,2.63 0.286,0.423 0.566,0.839 0.84,1.245 0.271,0.412 0.552,0.799 0.863,1.144 0.59,0.715 1.172,1.373 1.71,1.98 1.06,1.225 1.994,2.206 2.644,2.895 0.658,0.683 1.049,1.06 1.049,1.06 z" /></g><g
   transform="translate(-101.26018,259.80027)"
   id="g202"
   style="stroke-width:0.74229419"><path
     inkscape:connector-curvature="0"
     id="path204"
     style="fill:#425560;fill-opacity:1;fill-rule:nonzero;stroke:none;stroke-width:0.74229419"
     d="m 0,0 c 0.858,-1.592 1.606,-3.391 1.254,-5.165 -0.637,-3.208 -4.343,-4.641 -7.526,-5.39 -14.115,-3.323 -28.813,-4.15 -43.211,-2.433 -3.719,0.443 -7.62,1.144 -10.481,3.558 -3.732,3.151 -4.81,8.617 -3.931,13.421 0.879,4.805 3.397,9.128 5.872,13.339 1.476,2.512 2.986,5.066 5.148,7.019 C -38.558,37.28 -6.846,12.699 0,0" /></g><g
   transform="translate(-137.45058,268.65187)"
   id="g206"
   style="stroke-width:0.74229419"><path
     inkscape:connector-curvature="0"
     id="path208"
     style="fill:#4e6472;fill-opacity:1;fill-rule:nonzero;stroke:none;stroke-width:0.74229419"
     d="m 0,0 c 7.696,-3.429 15.797,-9.133 16.43,-17.534 0.149,-1.99 -0.246,-4.187 -1.747,-5.502 -0.913,-0.801 -2.118,-1.174 -3.294,-1.477 -5.565,-1.43 -11.345,-1.76 -17.081,-2.084 -17.704,-0.999 -36.463,-1.776 -52.05,6.68 -3.237,1.757 -6.383,4.009 -8.116,7.259 C -72.727,0.213 -48.66,5.49 -40.257,6.549 -26.62,8.267 -12.493,5.564 0,0" /></g><g
   transform="translate(-204.52578,259.81397)"
   id="g210"
   style="stroke-width:0.74229419"><path
     inkscape:connector-curvature="0"
     id="path212"
     style="fill:#e0492b;fill-opacity:1;fill-rule:nonzero;stroke:none;stroke-width:0.74229419"
     d="m 0,0 c 24.453,2.744 50.696,12.112 71.864,24.659 1.379,0.818 2.826,1.743 3.467,3.212 0.539,1.234 0.412,2.646 0.259,3.984 -1.993,17.344 -6.878,34.352 -14.392,50.11 -0.932,1.957 -1.94,3.941 -3.535,5.41 -2.074,1.909 -4.91,2.737 -7.679,3.267 C 34.738,93.561 7.83,88.416 3.825,70.827 -1.293,48.347 -5.935,22.531 0,0" /></g><g
   id="g214"
   transform="translate(-460.33438,36.979971)"
   style="stroke-width:0.74229419"><g
     id="g216"
     style="stroke-width:0.74229419" /><g
     id="g228"
     style="stroke-width:0.74229419"><g
       style="opacity:0.19999701;stroke-width:0.74229419"
       id="g226"
       clip-path="url(#clipPath220)"><g
         id="g224"
         transform="translate(299.9375,297.8188)"
         style="stroke-width:0.74229419"><path
           inkscape:connector-curvature="0"
           id="path222"
           style="fill:#352d2c;fill-opacity:1;fill-rule:nonzero;stroke:none;stroke-width:0.74229419"
           d="m 0,0 c -2.242,-1.843 -5.18,-3.076 -8.269,-3.373 -4.845,-0.467 -9.599,1.326 -13.771,3.488 3.763,2.067 8.357,2.595 12.763,3.244 4.485,0.66 8.241,1.796 12.076,3.843 C 4.503,5.026 1.908,1.569 0,0" /></g></g></g></g><g
   id="g230"
   transform="translate(-460.33438,36.979971)"
   style="stroke-width:0.74229419"><g
     id="g232"
     style="stroke-width:0.74229419" /><g
     id="g244"
     style="stroke-width:0.74229419"><g
       style="opacity:0.19999701;stroke-width:0.74229419"
       id="g242"
       clip-path="url(#clipPath236)"><g
         id="g240"
         transform="translate(311.1357,279.9722)"
         style="stroke-width:0.74229419"><path
           inkscape:connector-curvature="0"
           id="path238"
           style="fill:#352d2c;fill-opacity:1;fill-rule:nonzero;stroke:none;stroke-width:0.74229419"
           d="m 0,0 1.419,-2.27 c 0,0 6.397,-18.816 8.296,-34.047 0,0 3.484,-18.073 16.826,-13.871 0,0 2.684,2.348 3.92,0.957 0,0 4.112,-2.54 5.673,1.343 l -6.909,4.329 h -7.64 L 17.708,-37.491 6.005,6.535 Z" /></g></g></g></g><g
   transform="translate(-120.20648,283.94087)"
   id="g246"
   style="stroke-width:0.74229419"><path
     inkscape:connector-curvature="0"
     id="path248"
     style="fill:#efd4c2;fill-opacity:1;fill-rule:nonzero;stroke:none;stroke-width:0.74229419"
     d="m 0,0 c 0.642,0.345 1.295,0.693 2.009,0.832 1.927,0.373 3.868,-0.91 4.881,-2.591 1.012,-1.679 1.299,-3.684 1.566,-5.629 0.294,-2.15 0.564,-4.463 -0.441,-6.386 -1.005,-1.924 -3.838,-3.012 -5.408,-1.513 -0.342,0.327 -0.603,0.751 -1.014,0.986 -1.326,0.76 -2.672,-0.859 -3.93,-1.727 -1.605,-1.11 -3.809,-1.004 -5.601,-0.23 C -21.912,-10.218 -6.556,-3.52 0,0" /></g><g
   transform="translate(-135.10978,338.99557)"
   id="g250"
   style="stroke-width:0.74229419"><path
     inkscape:connector-curvature="0"
     id="path252"
     style="fill:#efd4c2;fill-opacity:1;fill-rule:nonzero;stroke:none;stroke-width:0.74229419"
     d="m 0,0 c 6.197,-24.592 7.407,-40.789 9.512,-66.063 0.048,-0.576 0.093,-1.164 -0.044,-1.725 -0.562,-2.284 -3.921,-2.755 -5.812,-1.354 -1.889,1.401 -2.643,3.831 -3.284,6.095 -6.259,22.116 -9.36,35.38 -15.431,57.548 -0.925,3.382 -1.851,6.765 -2.778,10.146 -1.524,5.57 0.619,10.937 7.034,9.371 C -4.303,12.43 -1.446,5.74 0,0" /></g><g
   transform="translate(-149.19868,316.95217)"
   id="g254"
   style="stroke-width:0.74229419"><path
     inkscape:connector-curvature="0"
     id="path256"
     style="fill:#e0492b;fill-opacity:1;fill-rule:nonzero;stroke:none;stroke-width:0.74229419"
     d="m 0,0 c 0,0 10.632,10.76 20.396,6.307 0,0 -3.668,27.781 -14.391,30.03 0,0 -15.662,0.766 -11.894,-14.261 z" /></g><g
   id="g258"
   transform="translate(-460.33438,36.979971)"
   style="stroke-width:0.74229419"><g
     id="g260"
     style="stroke-width:0.74229419" /><g
     id="g272"
     style="stroke-width:0.74229419"><g
       style="opacity:0.5;stroke-width:0.74229419"
       id="g270"
       clip-path="url(#clipPath264)"><g
         id="g268"
         transform="translate(313.9678,282.3823)"
         style="stroke-width:0.74229419"><path
           inkscape:connector-curvature="0"
           id="path266"
           style="fill:#ad9586;fill-opacity:1;fill-rule:nonzero;stroke:none;stroke-width:0.74229419"
           d="M 0,0 C 0,0 6.783,6.201 14.612,4.802 L 14.876,3.46 c 0,0 -11.985,-1.697 -14.7,-4.124 z" /></g></g></g></g><g
   transform="translate(-135.78458,387.25487)"
   id="g274"
   style="stroke-width:0.74229419"><path
     inkscape:connector-curvature="0"
     id="path276"
     style="fill:#efd4c2;fill-opacity:1;fill-rule:nonzero;stroke:none;stroke-width:0.74229419"
     d="m 0,0 c 2.501,-11.093 0.977,-23.313 -5.703,-32.473 -11.769,-16.136 -39.753,-25.641 -58.88,-20.206 -10.851,3.083 -19.578,11.488 -25.353,21.177 -5.775,9.69 -8.958,20.67 -11.926,31.552 -2.786,10.218 -5.433,21.099 -2.399,31.246 4.937,16.514 24.233,25.559 41.352,23.549 C -36.66,51.761 -7.716,27.804 -0.578,2.291 -0.366,1.533 -0.174,0.77 0,0" /></g><g
   transform="translate(-193.28168,380.59617)"
   id="g278"
   style="stroke-width:0.74229419"><path
     inkscape:connector-curvature="0"
     id="path280"
     style="fill:#ffffff;fill-opacity:1;fill-rule:nonzero;stroke:none;stroke-width:0.74229419"
     d="M 0,0 C 3.408,-3.797 10.543,-3.68 13.542,0.776 17.4,6.509 6.023,20.434 -0.438,15.229 -4.69,11.804 -3.247,4.028 -0.258,0.304 -0.175,0.2 -0.089,0.099 0,0" /></g><g
   transform="translate(-182.03458,383.75047)"
   id="g282"
   style="stroke-width:0.74229419"><path
     inkscape:connector-curvature="0"
     id="path284"
     style="fill:#3d3430;fill-opacity:1;fill-rule:nonzero;stroke:none;stroke-width:0.74229419"
     d="M 0,0 C 0.75,-1.978 0.284,-3.989 -1.042,-4.492 -2.367,-4.995 -4.051,-3.8 -4.801,-1.822 -5.552,0.156 -5.085,2.167 -3.76,2.67 -2.434,3.173 -0.751,1.978 0,0" /></g><g
   transform="translate(-183.45348,381.78517)"
   id="g286"
   style="stroke-width:0.74229419"><path
     inkscape:connector-curvature="0"
     id="path288"
     style="fill:#ffffff;fill-opacity:1;fill-rule:nonzero;stroke:none;stroke-width:0.74229419"
     d="m 0,0 c 0.32,-0.844 0.121,-1.703 -0.444,-1.917 -0.567,-0.215 -1.285,0.295 -1.605,1.139 -0.32,0.844 -0.122,1.703 0.445,1.918 C -1.039,1.354 -0.32,0.844 0,0" /></g><g
   transform="translate(-166.24938,391.97657)"
   id="g290"
   style="stroke-width:0.74229419"><path
     inkscape:connector-curvature="0"
     id="path292"
     style="fill:#ffffff;fill-opacity:1;fill-rule:nonzero;stroke:none;stroke-width:0.74229419"
     d="M 0,0 C 3.408,-3.797 10.543,-3.68 13.542,0.776 17.4,6.509 6.023,20.433 -0.438,15.229 -4.69,11.804 -3.247,4.028 -0.258,0.304 -0.175,0.2 -0.089,0.099 0,0" /></g><g
   transform="translate(-155.00238,395.13087)"
   id="g294"
   style="stroke-width:0.74229419"><path
     inkscape:connector-curvature="0"
     id="path296"
     style="fill:#3d3430;fill-opacity:1;fill-rule:nonzero;stroke:none;stroke-width:0.74229419"
     d="M 0,0 C 0.75,-1.978 0.284,-3.989 -1.042,-4.492 -2.367,-4.995 -4.051,-3.8 -4.801,-1.822 -5.552,0.156 -5.086,2.167 -3.76,2.67 -2.434,3.173 -0.751,1.978 0,0" /></g><g
   transform="translate(-156.42128,393.16547)"
   id="g298"
   style="stroke-width:0.74229419"><path
     inkscape:connector-curvature="0"
     id="path300"
     style="fill:#ffffff;fill-opacity:1;fill-rule:nonzero;stroke:none;stroke-width:0.74229419"
     d="M 0,0 C 0.32,-0.844 0.121,-1.703 -0.444,-1.917 -1.011,-2.132 -1.729,-1.622 -2.049,-0.778 -2.37,0.066 -2.171,0.925 -1.604,1.14 -1.039,1.354 -0.32,0.844 0,0" /></g><g
   transform="translate(-156.23968,386.39107)"
   id="g302"
   style="stroke-width:0.74229419"><path
     inkscape:connector-curvature="0"
     id="path304"
     style="fill:#ad9586;fill-opacity:1;fill-rule:nonzero;stroke:none;stroke-width:0.74229419"
     d="m 0,0 c 0.283,0.029 0.6,0.054 0.824,-0.122 0.22,-0.171 0.276,-0.477 0.3,-0.754 0.192,-2.162 -0.615,-4.392 -2.148,-5.929 -1.533,-1.536 -3.76,-2.35 -5.922,-2.164 -0.888,0.077 -1.784,0.326 -2.487,0.875 -0.565,0.442 -0.974,1.055 -1.304,1.693 -1.06,2.05 -3.413,7.492 0.387,7.957 1.379,0.168 3.537,-1.213 4.989,-1.449 C -3.596,-0.18 -1.776,-0.182 0,0" /></g><g
   transform="translate(-182.83638,366.43017)"
   id="g306"
   style="stroke-width:0.74229419"><path
     inkscape:connector-curvature="0"
     id="path308"
     style="fill:#917c70;fill-opacity:1;fill-rule:nonzero;stroke:none;stroke-width:0.74229419"
     d="m 0,0 c 0,0 0.062,-0.037 0.176,-0.105 0.094,-0.06 0.293,-0.156 0.525,-0.267 0.243,-0.107 0.542,-0.233 0.902,-0.351 0.353,-0.127 0.77,-0.236 1.226,-0.346 0.46,-0.099 0.962,-0.201 1.504,-0.256 0.537,-0.09 1.116,-0.083 1.713,-0.126 0.597,0.019 1.22,0 1.849,0.066 0.627,0.069 1.273,0.104 1.906,0.239 0.637,0.108 1.275,0.215 1.889,0.392 0.619,0.159 1.235,0.297 1.808,0.508 0.576,0.199 1.146,0.365 1.667,0.571 0.52,0.213 1.011,0.415 1.464,0.601 0.914,0.359 1.625,0.771 2.147,1.007 0.516,0.253 0.811,0.397 0.811,0.397 0,0 -0.283,-0.164 -0.779,-0.453 -0.505,-0.272 -1.19,-0.736 -2.08,-1.161 -0.443,-0.219 -0.922,-0.457 -1.43,-0.709 -0.511,-0.245 -1.072,-0.452 -1.643,-0.695 -0.566,-0.255 -1.18,-0.44 -1.8,-0.647 C 11.24,-1.559 10.595,-1.715 9.947,-1.874 9.306,-2.058 8.643,-2.143 7.993,-2.26 7.344,-2.374 6.691,-2.403 6.063,-2.465 5.432,-2.466 4.818,-2.515 4.236,-2.46 3.652,-2.442 3.103,-2.373 2.594,-2.299 2.088,-2.215 1.622,-2.127 1.215,-2.013 0.806,-1.91 0.452,-1.791 0.162,-1.685 c -0.295,0.114 -0.509,0.199 -0.684,0.289 -0.155,0.079 -0.238,0.121 -0.238,0.121 z" /></g><g
   transform="translate(-181.18888,367.97367)"
   id="g310"
   style="stroke-width:0.74229419"><path
     inkscape:connector-curvature="0"
     id="path312"
     style="fill:#917c70;fill-opacity:1;fill-rule:nonzero;stroke:none;stroke-width:0.74229419"
     d="m 0,0 c 0,0 -0.317,-0.226 -0.729,-0.643 -0.412,-0.409 -0.917,-1.02 -1.208,-1.733 -0.164,-0.347 -0.28,-0.716 -0.334,-1.072 -0.059,-0.353 -0.078,-0.694 -0.043,-0.98 0.011,-0.29 0.052,-0.529 0.09,-0.696 0.032,-0.168 0.05,-0.263 0.05,-0.263 l -0.142,-0.044 c 0.025,0.007 -0.546,0.242 -0.905,0.923 -0.1,0.167 -0.197,0.359 -0.236,0.572 -0.055,0.212 -0.129,0.448 -0.11,0.687 0.002,0.24 -0.022,0.501 0.053,0.744 0.051,0.251 0.132,0.492 0.222,0.731 0.104,0.236 0.254,0.436 0.38,0.647 0.131,0.204 0.321,0.364 0.482,0.522 0.339,0.306 0.718,0.511 1.071,0.623 0.694,0.246 1.279,0.107 1.279,0.107 z" /></g><g
   transform="translate(-155.78458,421.15967)"
   id="g314"
   style="stroke-width:0.74229419"><path
     inkscape:connector-curvature="0"
     id="path316"
     style="fill:#60483d;fill-opacity:1;fill-rule:nonzero;stroke:none;stroke-width:0.74229419"
     d="m 0,0 c 0.935,1.041 1.606,2.291 2.269,3.526 0.388,0.727 0.778,1.454 1.167,2.181 0.315,0.588 0.63,1.177 0.902,1.786 1.237,2.78 1.72,6.536 0.735,9.445 -0.492,1.458 -1.565,2.905 -2.549,4.067 -0.744,0.88 -2.845,2.012 -3.277,2.941 1.319,-2.842 1.881,-6.043 1.607,-9.172 -3.911,6.454 -10.416,11.229 -17.674,12.976 2.762,-2.368 4.236,-6.2 3.785,-9.843 -3.03,2.443 -6.299,4.579 -9.744,6.367 -0.16,-0.927 -0.32,-1.855 -0.48,-2.782 -16.977,3.068 -35.776,2.68 -49.795,-7.52 -12.21,-8.883 -19.01,-24.873 -17.01,-39.995 0.319,-2.41 0.866,-4.85 2.17,-6.888 0.476,-0.742 1.052,-1.433 1.356,-2.262 0.466,-1.273 0.232,-2.682 0.074,-4.031 -1.038,-8.817 1.6,-18.02 7.134,-24.892 5.534,-6.873 13.889,-11.323 22.601,-12.036 -2.736,3.832 -4.512,8.31 -5.294,12.945 -0.339,2.006 -0.055,4.165 -0.434,6.109 -0.416,2.139 -1.48,3.715 -1.324,6.037 0.05,0.749 0.305,1.641 1.03,1.835 0.481,0.129 0.973,-0.113 1.437,-0.294 1.698,-0.662 3.689,-0.526 5.282,0.362 -1.464,0.511 -2.638,1.781 -3.033,3.28 -0.962,3.645 2.921,8.183 3.346,11.904 0.288,2.517 0.008,5.097 -0.812,7.491 -0.498,1.454 -1.694,2.675 -2.597,3.849 -0.917,1.191 -2.099,3.889 -3.405,4.614 5.494,-3.047 11.33,-1.402 16.999,0.204 5.906,1.673 11.564,4.101 17.454,5.829 5.172,1.517 10.299,3.205 15.301,5.217 3.98,1.601 9.66,3.4 12.673,6.634 C -0.07,-0.078 -0.035,-0.039 0,0" /></g><g
   transform="translate(-216.65908,371.54877)"
   id="g318"
   style="stroke-width:0.74229419"><path
     inkscape:connector-curvature="0"
     id="path320"
     style="fill:#efd4c2;fill-opacity:1;fill-rule:nonzero;stroke:none;stroke-width:0.74229419"
     d="m 0,0 c -2.289,0.618 -4.613,1.241 -6.983,1.207 -2.37,-0.033 -4.834,-0.81 -6.403,-2.586 -0.647,-0.733 -1.118,-1.606 -1.48,-2.514 -2.287,-5.735 0.324,-12.98 5.744,-15.938 3.163,-1.725 7.158,-2.004 10.393,-0.419 3.234,1.586 5.514,5.114 5.305,8.71" /></g><g
   transform="translate(-218.83828,355.78177)"
   id="g322"
   style="stroke-width:0.74229419"><path
     inkscape:connector-curvature="0"
     id="path324"
     style="fill:#917c70;fill-opacity:1;fill-rule:nonzero;stroke:none;stroke-width:0.74229419"
     d="m 0,0 c 0,0 -0.138,-0.018 -0.396,-0.051 -0.253,-0.044 -0.647,-0.058 -1.144,-0.045 -0.491,0.038 -1.099,0.095 -1.758,0.318 -0.658,0.214 -1.394,0.529 -2.085,1.058 -0.674,0.506 -1.349,1.233 -1.846,2.095 -0.506,0.865 -0.847,1.899 -0.935,3.008 0,0.272 -10e-4,0.547 -10e-4,0.823 0.061,0.316 0.089,0.594 0.202,0.953 l 0.156,0.372 c 0.066,0.133 0.167,0.282 0.254,0.422 0.191,0.268 0.383,0.504 0.619,0.703 0.453,0.419 0.977,0.737 1.525,0.977 0.281,0.128 0.538,0.226 0.858,0.319 0.279,0.069 0.509,0.165 0.828,0.211 0.619,0.122 1.232,0.175 1.854,0.116 l 0.467,-0.059 c 0.103,-0.022 0.101,0.004 0.29,-0.056 l 0.196,-0.063 c 0.27,-0.095 0.503,-0.126 0.827,-0.321 0.298,-0.167 0.625,-0.32 0.848,-0.552 0.242,-0.221 0.504,-0.419 0.67,-0.716 L 1.703,9.095 1.769,8.99 1.785,8.964 1.822,8.875 1.839,8.828 1.909,8.642 C 1.954,8.511 2.005,8.412 2.045,8.256 L 2.146,7.751 C 2.16,7.643 2.172,7.634 2.184,7.446 L 2.185,7.252 C 2.18,7.11 2.199,7.023 2.174,6.838 2.137,6.485 2.075,6.143 1.936,5.838 1.885,5.68 1.809,5.529 1.698,5.386 L 1.545,5.173 1.467,5.069 1.427,5.018 1.344,4.94 1.327,4.926 C 1.222,4.844 1.158,4.783 1.016,4.692 0.844,4.595 0.653,4.493 0.482,4.435 -0.159,4.227 -0.799,4.286 -1.351,4.507 -1.623,4.628 -1.884,4.773 -2.095,4.982 L -2.256,5.13 -2.304,5.184 -2.31,5.192 -2.322,5.208 -2.345,5.241 -2.392,5.306 c -0.064,0.097 -0.117,0.145 -0.193,0.298 -0.315,0.543 -0.346,1 -0.335,1.469 0.013,0.457 0.146,0.874 0.327,1.227 l 0.146,0.256 c 0.116,0.164 0.127,0.148 0.195,0.229 0.108,0.116 0.212,0.228 0.313,0.336 0.25,0.205 0.551,0.362 0.779,0.5 0.504,0.17 0.885,0.286 1.167,0.265 0.268,0.01 0.411,0.015 0.411,0.015 L 0.427,9.753 c 0,0 -0.13,-0.043 -0.374,-0.123 C -0.194,9.579 -0.52,9.398 -0.901,9.168 -1.053,9.006 -1.22,8.882 -1.392,8.688 -1.473,8.566 -1.559,8.439 -1.647,8.308 -1.674,8.263 -1.773,8.127 -1.745,8.154 L -1.815,7.959 C -2.01,7.455 -1.91,6.699 -1.611,6.284 c 0.006,-0.04 0.11,-0.139 0.172,-0.213 l 0.054,-0.059 0.027,-0.03 0.013,-0.015 0.007,-0.008 C -1.415,6.046 -1.356,5.981 -1.372,6 l 0.089,-0.058 c 0.105,-0.088 0.25,-0.14 0.39,-0.186 C -0.608,5.664 -0.262,5.668 0,5.787 0.05,5.814 0.067,5.836 0.113,5.843 0.175,5.879 0.284,5.995 0.371,6.064 L 0.389,6.079 0.397,6.086 C 0.371,6.062 0.469,6.153 0.34,6.032 L 0.353,6.056 0.38,6.104 0.439,6.194 C 0.488,6.246 0.521,6.316 0.54,6.402 0.611,6.558 0.624,6.716 0.648,6.872 0.67,6.939 0.647,7.111 0.649,7.227 L 0.643,7.421 C 0.644,7.361 0.627,7.479 0.621,7.5 0.607,7.588 0.599,7.677 0.592,7.769 0.577,7.868 0.516,8.011 0.48,8.131 L 0.417,8.319 0.401,8.367 0.397,8.378 C 0.408,8.353 0.368,8.453 0.42,8.324 L 0.41,8.339 0.369,8.402 0.209,8.66 C 0,9 -0.354,9.314 -0.679,9.513 -0.804,9.643 -1.118,9.729 -1.361,9.832 l -0.193,0.074 c 0.06,-0.009 -0.084,0.016 -0.115,0.022 L -2.021,9.995 C -2.495,10.074 -3.002,10.06 -3.477,10.001 -3.711,9.989 -4.008,9.892 -4.271,9.841 -4.485,9.792 -4.754,9.708 -4.98,9.616 -5.454,9.438 -5.896,9.194 -6.262,8.888 -6.453,8.748 -6.615,8.557 -6.747,8.396 -6.805,8.307 -6.87,8.241 -6.931,8.138 L -7.105,7.774 -7.265,7.175 c -0.013,-0.252 -0.027,-0.502 -0.04,-0.75 0.024,-0.974 0.292,-1.907 0.692,-2.718 0.408,-0.82 0.935,-1.482 1.555,-2.022 0.603,-0.53 1.272,-0.872 1.881,-1.116 0.611,-0.254 1.187,-0.347 1.657,-0.415 0.472,-0.044 0.845,-0.058 1.107,-0.031 0.261,0.016 0.399,0.024 0.399,0.024 z" /></g><g
   transform="translate(-160.84118,445.99067)"
   id="g326"
   style="stroke-width:0.74229419"><path
     inkscape:connector-curvature="0"
     id="path328"
     style="fill:#60483d;fill-opacity:1;fill-rule:nonzero;stroke:none;stroke-width:0.74229419"
     d="m 0,0 c 0,0 0.206,-0.095 0.566,-0.262 0.183,-0.078 0.39,-0.208 0.639,-0.342 0.253,-0.129 0.501,-0.327 0.797,-0.519 0.136,-0.114 0.276,-0.232 0.422,-0.356 0.078,-0.07 0.137,-0.106 0.234,-0.21 l 0.193,-0.215 c 0.261,-0.289 0.537,-0.585 0.788,-0.976 0.13,-0.2 0.263,-0.349 0.397,-0.604 0.107,-0.192 0.214,-0.386 0.322,-0.581 0.217,-0.391 0.438,-0.788 0.659,-1.185 0.216,-0.399 0.362,-0.877 0.544,-1.314 0.167,-0.447 0.357,-0.892 0.492,-1.327 0.208,-0.869 0.421,-1.692 0.566,-2.408 0.149,-1.461 0.247,-2.434 0.247,-2.434 l -2.963,0.18 c 0,0 0.087,0.833 0.218,2.082 -0.001,0.629 -0.039,1.369 -0.057,2.178 -0.038,0.392 -0.122,0.782 -0.181,1.195 -0.079,0.411 -0.101,0.83 -0.231,1.264 -0.135,0.433 -0.27,0.867 -0.403,1.293 -0.066,0.214 -0.133,0.425 -0.198,0.634 -0.033,0.147 -0.144,0.358 -0.211,0.532 -0.132,0.368 -0.346,0.728 -0.545,1.064 l -0.145,0.25 c -0.023,0.04 -0.1,0.132 -0.147,0.195 -0.108,0.138 -0.214,0.273 -0.315,0.402 -0.233,0.229 -0.431,0.469 -0.642,0.638 -0.209,0.173 -0.381,0.34 -0.545,0.454 C 0.183,-0.135 0,0 0,0" /></g><g
   transform="translate(-159.27868,420.22407)"
   id="g330"
   style="stroke-width:0.74229419"><path
     inkscape:connector-curvature="0"
     id="path332"
     style="fill:#60483d;fill-opacity:1;fill-rule:nonzero;stroke:none;stroke-width:0.74229419"
     d="M 0,0 C 0,0 0.315,0.145 0.866,0.398 1.414,0.653 2.183,1.016 3.088,1.489 3.524,1.742 4.023,1.989 4.5,2.312 4.998,2.61 5.479,2.976 5.981,3.354 6.453,3.762 6.94,4.188 7.366,4.687 l 0.167,0.18 0.042,0.046 C 7.554,4.876 7.591,4.933 7.596,4.938 L 7.67,5.043 7.969,5.465 C 8.158,5.749 8.39,6.026 8.547,6.317 8.832,6.91 9.19,7.469 9.387,8.115 9.499,8.429 9.625,8.737 9.724,9.05 c 0.081,0.32 0.16,0.635 0.239,0.945 0.183,0.617 0.23,1.241 0.34,1.822 0.091,0.584 0.111,1.145 0.165,1.66 0.041,0.517 0.037,0.992 0.055,1.414 0.02,0.422 0.006,0.789 0.003,1.092 -0.009,0.607 -0.014,0.954 -0.014,0.954 0,0 0.028,-0.346 0.078,-0.951 0.023,-0.302 0.061,-0.67 0.07,-1.093 C 10.67,14.47 10.706,13.992 10.7,13.47 10.681,12.949 10.697,12.38 10.646,11.782 10.575,11.186 10.567,10.547 10.423,9.902 10.363,9.578 10.303,9.248 10.242,8.913 10.161,8.583 10.053,8.254 9.958,7.919 9.8,7.241 9.455,6.591 9.174,5.92 9.021,5.592 8.819,5.32 8.646,5.018 L 8.376,4.577 8.309,4.467 C 8.289,4.438 8.307,4.456 8.255,4.387 L 8.214,4.335 8.047,4.128 C 7.619,3.557 7.128,3.063 6.646,2.587 6.139,2.147 5.645,1.72 5.142,1.37 4.654,0.991 4.158,0.702 3.714,0.404 2.811,-0.148 2.038,-0.578 1.504,-0.871 0.971,-1.161 0.666,-1.326 0.666,-1.326 Z" /></g><g
   transform="translate(-156.63908,422.06937)"
   id="g334"
   style="stroke-width:0.74229419"><path
     inkscape:connector-curvature="0"
     id="path336"
     style="fill:#60483d;fill-opacity:1;fill-rule:nonzero;stroke:none;stroke-width:0.74229419"
     d="m 0,0 c 0,0 0.27,0.216 0.74,0.593 0.231,0.19 0.537,0.414 0.819,0.689 0.291,0.277 0.636,0.57 0.986,0.925 0.332,0.372 0.72,0.755 1.082,1.198 0.32,0.458 0.761,0.93 1.036,1.443 0.163,0.279 0.327,0.564 0.494,0.851 0.178,0.287 0.336,0.579 0.442,0.88 0.224,0.606 0.55,1.186 0.687,1.852 0.169,0.65 0.386,1.295 0.441,1.96 0.095,0.659 0.203,1.309 0.178,1.947 0.011,0.637 0.038,1.256 -0.058,1.835 -0.084,0.578 -0.08,1.145 -0.236,1.636 C 6.489,16.308 6.377,16.766 6.278,17.171 6.151,17.569 6,17.902 5.896,18.185 5.676,18.746 5.55,19.067 5.55,19.067 c 0,0 0.147,-0.312 0.404,-0.857 0.123,-0.275 0.299,-0.602 0.453,-0.994 0.128,-0.403 0.273,-0.857 0.43,-1.353 0.19,-0.49 0.226,-1.06 0.351,-1.646 0.138,-0.588 0.154,-1.22 0.187,-1.876 C 7.442,11.684 7.379,11.008 7.326,10.318 7.313,9.621 7.137,8.938 7.004,8.243 6.907,7.543 6.603,6.876 6.393,6.2 6.29,5.851 6.147,5.542 5.993,5.251 5.846,4.953 5.7,4.658 5.558,4.368 5.256,3.722 4.856,3.246 4.532,2.713 4.178,2.214 3.796,1.78 3.466,1.358 3.116,0.952 2.761,0.605 2.463,0.284 2.161,-0.048 1.888,-0.275 1.667,-0.483 1.223,-0.892 0.969,-1.125 0.969,-1.125 Z" /></g><g
   transform="translate(-217.74938,403.10107)"
   id="g338"
   style="stroke-width:0.74229419"><path
     inkscape:connector-curvature="0"
     id="path340"
     style="fill:#60483d;fill-opacity:1;fill-rule:nonzero;stroke:none;stroke-width:0.74229419"
     d="m 0,0 c 0,0 0.333,-0.198 0.915,-0.545 0.289,-0.185 0.647,-0.347 1.044,-0.696 0.39,-0.325 0.864,-0.664 1.306,-1.088 0.407,-0.451 0.883,-0.908 1.314,-1.449 0.379,-0.58 0.869,-1.13 1.204,-1.807 0.345,-0.669 0.739,-1.339 0.968,-2.098 0.127,-0.372 0.283,-0.737 0.386,-1.12 l 0.247,-1.17 0.121,-0.583 0.038,-0.595 c 0.024,-0.394 0.048,-0.787 0.072,-1.177 0.005,-0.418 -0.04,-0.768 -0.057,-1.15 C 7.48,-13.87 7.419,-14.236 7.313,-14.632 7.07,-15.31 6.759,-15.957 6.384,-16.55 6.01,-17.1 5.656,-17.62 5.33,-18.1 5.166,-18.34 5.01,-18.57 4.861,-18.789 4.701,-19.001 4.52,-19.181 4.365,-19.361 4.05,-19.714 3.774,-20.022 3.547,-20.276 3.096,-20.782 2.838,-21.07 2.838,-21.07 c 0,0 0.24,0.303 0.661,0.834 0.209,0.265 0.463,0.586 0.754,0.954 0.142,0.186 0.309,0.371 0.455,0.591 0.135,0.227 0.277,0.466 0.426,0.715 0.297,0.499 0.619,1.039 0.96,1.611 0.158,0.266 0.282,0.587 0.43,0.886 0.135,0.311 0.228,0.665 0.347,1.004 0.056,0.309 0.102,0.677 0.151,1.018 -0.005,0.365 0.018,0.772 -0.01,1.114 -0.046,0.368 -0.091,0.74 -0.137,1.113 l -0.067,0.559 -0.15,0.545 -0.296,1.084 c -0.119,0.354 -0.289,0.689 -0.427,1.03 -0.252,0.696 -0.664,1.299 -1.019,1.9 -0.344,0.609 -0.836,1.09 -1.211,1.602 -0.426,0.474 -0.89,0.864 -1.28,1.253 -0.418,0.353 -0.834,0.609 -1.179,0.873 -0.322,0.271 -0.73,0.436 -1.021,0.597 -0.602,0.311 -0.946,0.489 -0.946,0.489 z" /></g><g
   transform="translate(-216.14198,403.72217)"
   id="g342"
   style="stroke-width:0.74229419"><path
     inkscape:connector-curvature="0"
     id="path344"
     style="fill:#60483d;fill-opacity:1;fill-rule:nonzero;stroke:none;stroke-width:0.74229419"
     d="M 0,0 C 0,0 0.278,-0.202 0.765,-0.556 1.01,-0.743 1.299,-0.916 1.636,-1.139 1.964,-1.368 2.368,-1.582 2.8,-1.83 3.234,-2.072 3.724,-2.294 4.243,-2.521 4.771,-2.725 5.331,-2.938 5.931,-3.072 6.227,-3.165 6.535,-3.21 6.848,-3.251 7.16,-3.295 7.478,-3.359 7.8,-3.346 8.109,-3.342 8.474,-3.38 8.748,-3.344 l 1.021,0.135 c 0.355,0.023 0.641,0.153 0.96,0.234 0.307,0.105 0.63,0.148 0.928,0.303 0.605,0.264 1.21,0.51 1.748,0.852 0.563,0.297 1.067,0.653 1.548,0.988 0.493,0.319 0.908,0.692 1.318,1 0.41,0.311 0.754,0.635 1.076,0.902 0.32,0.269 0.59,0.514 0.813,0.716 0.447,0.403 0.702,0.633 0.702,0.633 0,0 -0.239,-0.247 -0.658,-0.679 C 17.995,1.523 17.742,1.26 17.44,0.969 17.137,0.68 16.812,0.333 16.424,-0.008 16.031,-0.345 15.639,-0.749 15.161,-1.106 14.697,-1.479 14.208,-1.875 13.651,-2.221 13.122,-2.608 12.512,-2.908 11.896,-3.227 11.6,-3.406 11.24,-3.488 10.909,-3.623 10.571,-3.734 10.225,-3.898 9.891,-3.941 L 8.881,-4.145 C 8.479,-4.22 8.156,-4.197 7.792,-4.227 7.436,-4.262 7.088,-4.218 6.742,-4.193 6.394,-4.171 6.051,-4.142 5.724,-4.065 5.056,-3.96 4.435,-3.774 3.847,-3.59 3.271,-3.384 2.725,-3.178 2.243,-2.951 1.764,-2.718 1.317,-2.519 0.94,-2.293 c -0.377,0.214 -0.726,0.397 -0.97,0.56 -0.509,0.32 -0.8,0.503 -0.8,0.503 z" /></g><g
   transform="translate(-156.96718,436.98587)"
   id="g346"
   style="stroke-width:0.74229419"><path
     inkscape:connector-curvature="0"
     id="path348"
     style="fill:#60483d;fill-opacity:1;fill-rule:nonzero;stroke:none;stroke-width:0.74229419"
     d="m 0,0 c 0,0 -0.098,0.238 -0.27,0.653 -0.085,0.208 -0.189,0.461 -0.309,0.75 -0.113,0.298 -0.254,0.616 -0.438,0.926 -0.173,0.324 -0.363,0.675 -0.562,1.046 -0.187,0.38 -0.48,0.736 -0.732,1.131 -0.266,0.387 -0.52,0.806 -0.854,1.172 -0.317,0.382 -0.641,0.769 -0.963,1.156 -0.361,0.354 -0.722,0.709 -1.076,1.058 -0.343,0.366 -0.74,0.655 -1.109,0.957 -0.378,0.287 -0.715,0.612 -1.09,0.838 -0.368,0.238 -0.716,0.464 -1.037,0.672 -0.631,0.441 -1.238,0.664 -1.627,0.89 -0.401,0.204 -0.63,0.321 -0.63,0.321 0,0 0.238,-0.096 0.655,-0.263 0.407,-0.188 1.041,-0.36 1.714,-0.745 0.344,-0.181 0.716,-0.377 1.109,-0.585 0.404,-0.196 0.771,-0.492 1.184,-0.75 0.403,-0.273 0.84,-0.535 1.223,-0.876 0.397,-0.327 0.801,-0.658 1.206,-0.989 0.37,-0.371 0.741,-0.741 1.105,-1.106 0.382,-0.352 0.687,-0.76 1.002,-1.14 0.303,-0.391 0.638,-0.733 0.88,-1.127 C -0.365,3.603 -0.125,3.238 0.098,2.902 0.334,2.564 0.506,2.25 0.643,1.972 0.787,1.695 0.914,1.453 1.018,1.253 1.227,0.855 1.346,0.627 1.346,0.627 Z" /></g><g
   transform="translate(-173.14098,447.25877)"
   id="g350"
   style="stroke-width:0.74229419"><path
     inkscape:connector-curvature="0"
     id="path352"
     style="fill:#60483d;fill-opacity:1;fill-rule:nonzero;stroke:none;stroke-width:0.74229419"
     d="m 0,0 c 0,0 0.495,-0.58 1.238,-1.451 0.186,-0.217 0.387,-0.453 0.6,-0.702 0.195,-0.267 0.401,-0.548 0.615,-0.839 0.214,-0.295 0.436,-0.6 0.66,-0.909 0.218,-0.303 0.475,-0.643 0.672,-0.961 0.419,-0.626 0.832,-1.368 1.154,-2.056 0.319,-0.708 0.579,-1.417 0.703,-2.079 0.085,-0.323 0.11,-0.638 0.137,-0.918 0.037,-0.279 0.044,-0.527 0.03,-0.736 -0.016,-0.417 -0.026,-0.656 -0.026,-0.656 l -2.908,0.593 c 0,0 0.04,0.136 0.11,0.376 0.046,0.119 0.081,0.271 0.101,0.454 0.026,0.181 0.071,0.388 0.064,0.628 0.036,0.472 -0.023,1.058 -0.137,1.701 C 2.88,-6.899 2.712,-6.24 2.451,-5.513 2.331,-5.142 2.194,-4.834 2.055,-4.482 1.917,-4.14 1.781,-3.804 1.65,-3.479 1.516,-3.151 1.387,-2.834 1.264,-2.533 1.117,-2.24 0.979,-1.963 0.852,-1.707 0.341,-0.683 0,0 0,0" /></g><g
   transform="translate(-175.48968,445.85007)"
   id="g354"
   style="stroke-width:0.74229419"><path
     inkscape:connector-curvature="0"
     id="path356"
     style="fill:#60483d;fill-opacity:1;fill-rule:nonzero;stroke:none;stroke-width:0.74229419"
     d="m 0,0 c 0,0 0.614,-0.455 1.514,-1.171 0.223,-0.182 0.465,-0.379 0.721,-0.587 0.262,-0.203 0.506,-0.455 0.778,-0.696 0.264,-0.248 0.553,-0.49 0.8,-0.785 0.259,-0.285 0.523,-0.576 0.786,-0.866 0.244,-0.33 0.47,-0.599 0.687,-0.952 0.23,-0.332 0.404,-0.675 0.587,-1.005 0.156,-0.343 0.324,-0.672 0.435,-1.006 0.117,-0.33 0.225,-0.646 0.287,-0.952 0.081,-0.3 0.128,-0.584 0.153,-0.838 0.036,-0.254 0.061,-0.477 0.055,-0.663 0.005,-0.373 0.007,-0.585 0.007,-0.585 l -1.477,0.149 c 0,0 0.019,0.168 0.05,0.463 0.025,0.148 0.026,0.33 0.021,0.541 0.006,0.21 -0.003,0.449 -0.042,0.71 -0.017,0.263 -0.079,0.544 -0.145,0.843 -0.059,0.301 -0.173,0.608 -0.274,0.932 -0.128,0.314 -0.25,0.65 -0.414,0.96 -0.136,0.312 -0.359,0.662 -0.534,0.97 -0.215,0.306 -0.431,0.61 -0.642,0.91 C 3.151,-3.317 2.9,-3.05 2.673,-2.778 2.438,-2.513 2.23,-2.238 1.998,-2.008 1.771,-1.772 1.557,-1.549 1.359,-1.344 0.556,-0.527 0,0 0,0" /></g><g
   transform="translate(-240.65758,377.35987)"
   id="g358"
   style="stroke-width:0.74229419"><path
     inkscape:connector-curvature="0"
     id="path360"
     style="fill:#60483d;fill-opacity:1;fill-rule:nonzero;stroke:none;stroke-width:0.74229419"
     d="m 0,0 c 0,0 -0.041,-0.268 -0.112,-0.738 -0.036,-0.234 -0.079,-0.519 -0.129,-0.846 -0.064,-0.333 -0.088,-0.689 -0.099,-1.074 -0.02,-0.39 -0.041,-0.812 -0.063,-1.258 -0.014,-0.45 0.024,-0.936 0.035,-1.434 0.013,-0.5 0.029,-1.018 0.1,-1.541 0.057,-0.525 0.115,-1.058 0.173,-1.591 0.19,-1.056 0.334,-2.127 0.587,-3.108 0.207,-0.992 0.468,-1.901 0.695,-2.681 0.207,-0.787 0.459,-1.416 0.601,-1.869 0.152,-0.45 0.239,-0.707 0.239,-0.707 0,0 -0.109,0.248 -0.298,0.683 -0.181,0.439 -0.488,1.05 -0.761,1.818 -0.295,0.762 -0.635,1.653 -0.929,2.634 -0.34,0.967 -0.579,2.034 -0.864,3.094 -0.106,0.539 -0.211,1.078 -0.316,1.608 -0.118,0.53 -0.18,1.06 -0.238,1.575 -0.056,0.516 -0.137,1.008 -0.164,1.49 -0.017,0.486 -0.032,0.945 -0.046,1.369 -0.021,0.429 -0.026,0.817 0.009,1.14 0.022,0.331 0.04,0.618 0.056,0.855 0.031,0.474 0.049,0.745 0.049,0.745 z" /></g><g
   transform="translate(-199.67518,398.80467)"
   id="g362"
   style="stroke-width:0.74229419"><path
     inkscape:connector-curvature="0"
     id="path364"
     style="fill:none;stroke:#44332c;stroke-width:1.10156465;stroke-linecap:round;stroke-linejoin:miter;stroke-miterlimit:10;stroke-dasharray:none;stroke-opacity:1"
     d="M 0,0 C 0,0 -0.495,11.398 8.657,4.225" /></g><g
   transform="translate(-172.19768,410.94527)"
   id="g366"
   style="stroke-width:0.74229419"><path
     inkscape:connector-curvature="0"
     id="path368"
     style="fill:none;stroke:#44332c;stroke-width:1.10156465;stroke-linecap:round;stroke-linejoin:miter;stroke-miterlimit:10;stroke-dasharray:none;stroke-opacity:1"
     d="M 0,0 C 0,0 -0.386,12.367 8.948,3.215" /></g><g
   transform="translate(-156.41448,430.48727)"
   id="g370"
   style="stroke-width:0.74229419"><path
     inkscape:connector-curvature="0"
     id="path372"
     style="fill:#7f6257;fill-opacity:1;fill-rule:nonzero;stroke:none;stroke-width:0.74229419"
     d="m 0,0 c 0,0 -0.742,-0.737 -2.078,-1.98 -0.676,-0.614 -1.478,-1.376 -2.43,-2.219 -1,-0.794 -2.137,-1.693 -3.417,-2.628 -1.245,-0.996 -2.721,-1.849 -4.243,-2.834 -0.769,-0.478 -1.543,-1 -2.365,-1.478 -0.832,-0.461 -1.715,-0.87 -2.596,-1.32 -0.887,-0.44 -1.788,-0.888 -2.7,-1.34 -0.942,-0.387 -1.897,-0.778 -2.858,-1.173 -0.964,-0.386 -1.926,-0.81 -2.914,-1.173 -1.001,-0.325 -2.006,-0.651 -3.011,-0.978 -1.019,-0.283 -2.018,-0.635 -3.047,-0.86 -1.029,-0.222 -2.054,-0.443 -3.07,-0.663 -1.022,-0.197 -2.016,-0.485 -3.031,-0.601 -1.009,-0.138 -2.006,-0.275 -2.987,-0.41 -0.988,-0.116 -1.925,-0.309 -2.906,-0.344 -0.941,-0.045 -1.845,-0.111 -2.778,-0.104 -0.92,-0.02 -1.811,-0.018 -2.67,0.035 -0.428,0.019 -0.85,0.038 -1.263,0.057 -0.414,0.043 -0.82,0.086 -1.217,0.127 -0.397,0.043 -0.785,0.085 -1.164,0.126 -0.378,0.068 -0.746,0.131 -1.103,0.209 -0.715,0.141 -1.388,0.282 -2.007,0.49 -0.619,0.198 -1.208,0.334 -1.728,0.546 -0.517,0.213 -0.992,0.408 -1.421,0.584 -0.434,0.157 -0.795,0.363 -1.103,0.549 -0.31,0.179 -0.575,0.331 -0.789,0.454 -0.424,0.246 -0.65,0.377 -0.65,0.377 l 0.07,0.131 c 0,0 0.235,-0.109 0.676,-0.311 0.451,-0.179 1.067,-0.556 1.934,-0.826 0.43,-0.143 0.906,-0.301 1.425,-0.473 0.518,-0.172 1.106,-0.265 1.718,-0.416 0.612,-0.161 1.278,-0.252 1.981,-0.342 0.351,-0.047 0.712,-0.097 1.08,-0.148 0.371,-0.023 0.752,-0.048 1.14,-0.073 0.387,-0.024 0.784,-0.049 1.188,-0.074 0.404,0 0.816,-0.001 1.236,-0.002 0.839,-0.016 1.705,0.02 2.595,0.076 1.782,0.082 3.656,0.307 5.574,0.627 0.963,0.147 1.941,0.297 2.931,0.449 0.995,0.128 1.969,0.429 2.969,0.638 0.995,0.231 1.999,0.464 3.006,0.698 1.006,0.235 1.983,0.598 2.978,0.892 0.992,0.306 1.984,0.612 2.973,0.916 0.974,0.341 1.925,0.743 2.879,1.108 0.952,0.372 1.896,0.743 2.829,1.108 0.904,0.431 1.798,0.857 2.676,1.276 0.877,0.421 1.741,0.836 2.585,1.241 0.83,0.435 1.612,0.916 2.389,1.354 1.539,0.903 3.04,1.684 4.298,2.607 1.287,0.876 2.468,1.679 3.515,2.39 1.005,0.771 1.858,1.475 2.572,2.038 1.423,1.134 2.235,1.783 2.235,1.783 z" /></g><g
   transform="translate(-216.49698,417.15327)"
   id="g374"
   style="stroke-width:0.74229419"><path
     inkscape:connector-curvature="0"
     id="path376"
     style="fill:#7f6257;fill-opacity:1;fill-rule:nonzero;stroke:none;stroke-width:0.74229419"
     d="m 0,0 c 0,0 0.711,-0.084 1.955,-0.232 0.621,-0.079 1.376,-0.172 2.245,-0.205 0.87,-0.03 1.846,-0.152 2.92,-0.124 1.07,0.019 2.233,-0.042 3.457,0.066 0.613,0.037 1.242,0.075 1.885,0.114 0.643,0.045 1.294,0.147 1.959,0.219 1.334,0.126 2.692,0.399 4.075,0.647 0.696,0.105 1.376,0.314 2.069,0.47 0.686,0.181 1.393,0.306 2.069,0.534 1.37,0.411 2.737,0.796 4.048,1.321 0.66,0.245 1.316,0.487 1.963,0.728 0.642,0.252 1.261,0.535 1.877,0.795 1.233,0.521 2.421,1.035 3.52,1.585 1.093,0.552 2.113,1.109 2.994,1.713 0.892,0.586 1.647,1.216 2.264,1.821 0.295,0.316 0.572,0.612 0.827,0.886 0.215,0.306 0.414,0.587 0.592,0.841 0.089,0.127 0.173,0.247 0.253,0.361 0.06,0.124 0.115,0.241 0.168,0.349 0.105,0.217 0.193,0.403 0.266,0.552 0.144,0.3 0.221,0.459 0.221,0.459 l 0.139,-0.051 c 0,0 -0.056,-0.173 -0.161,-0.496 -0.054,-0.165 -0.12,-0.367 -0.198,-0.605 -0.04,-0.12 -0.083,-0.249 -0.13,-0.388 -0.07,-0.125 -0.145,-0.258 -0.223,-0.399 C 40.892,10.677 40.713,10.362 40.519,10.02 40.28,9.707 40.021,9.368 39.745,9.006 39.163,8.307 38.43,7.559 37.528,6.903 36.643,6.215 35.628,5.575 34.522,4.929 33.451,4.308 32.267,3.688 31.017,3.127 30.397,2.841 29.764,2.528 29.124,2.25 28.486,1.986 27.838,1.723 27.179,1.474 L 26.19,1.092 25.693,0.9 25.133,0.722 c -0.697,-0.22 -1.396,-0.44 -2.096,-0.66 -0.699,-0.229 -1.425,-0.346 -2.134,-0.523 -0.714,-0.151 -1.414,-0.355 -2.13,-0.454 -1.422,-0.25 -2.827,-0.451 -4.197,-0.544 -0.685,-0.045 -1.352,-0.146 -2.014,-0.142 -0.659,10e-4 -1.305,0.002 -1.934,0.004 -1.253,-0.03 -2.436,0.104 -3.524,0.155 -1.086,0.025 -2.089,0.252 -2.962,0.376 -0.881,0.124 -1.622,0.295 -2.236,0.437 -1.227,0.284 -1.924,0.482 -1.924,0.482 z" /></g><g
   transform="translate(-215.97008,415.47947)"
   id="g378"
   style="stroke-width:0.74229419"><path
     inkscape:connector-curvature="0"
     id="path380"
     style="fill:#7f6257;fill-opacity:1;fill-rule:nonzero;stroke:none;stroke-width:0.74229419"
     d="M 0,0 C 0,0 0.502,-0.063 1.359,-0.231 1.786,-0.332 2.307,-0.412 2.895,-0.488 3.48,-0.576 4.139,-0.657 4.864,-0.739 5.582,-0.84 6.365,-0.89 7.186,-0.964 8.005,-1.051 8.878,-1.03 9.767,-1.096 c 0.895,-0.006 1.815,-0.002 2.75,0.031 0.936,-0.003 1.88,0.109 2.827,0.176 0.941,0.11 1.89,0.18 2.808,0.359 0.926,0.139 1.829,0.313 2.708,0.487 0.86,0.232 1.723,0.374 2.51,0.615 0.791,0.228 1.553,0.423 2.238,0.659 0.694,0.217 1.331,0.422 1.894,0.623 0.568,0.188 1.062,0.365 1.455,0.54 0.394,0.173 0.727,0.273 0.945,0.358 0.222,0.081 0.34,0.123 0.34,0.123 l 0.08,-0.125 c 0,0 -0.424,-0.254 -1.165,-0.701 C 28.792,1.815 28.328,1.568 27.791,1.295 27.26,1.008 26.652,0.702 25.968,0.414 25.297,0.095 24.546,-0.191 23.746,-0.484 c -0.792,-0.312 -1.661,-0.542 -2.547,-0.817 -0.902,-0.22 -1.828,-0.476 -2.791,-0.632 -0.955,-0.204 -1.942,-0.299 -2.925,-0.432 -0.989,-0.056 -1.976,-0.148 -2.953,-0.127 -0.974,-0.029 -1.932,0.049 -2.859,0.094 -0.922,0.103 -1.819,0.165 -2.656,0.322 -0.84,0.137 -1.632,0.277 -2.351,0.463 -0.726,0.155 -1.382,0.34 -1.958,0.522 -0.581,0.168 -1.082,0.323 -1.483,0.484 -0.81,0.297 -1.274,0.467 -1.274,0.467 z" /></g><g
   transform="translate(-220.53218,398.67727)"
   id="g382"
   style="stroke-width:0.74229419"><path
     inkscape:connector-curvature="0"
     id="path384"
     style="fill:#7f6257;fill-opacity:1;fill-rule:nonzero;stroke:none;stroke-width:0.74229419"
     d="m 0,0 c 0,0 0.339,-0.114 0.898,-0.383 0.263,-0.173 0.644,-0.369 0.97,-0.682 0.169,-0.151 0.346,-0.32 0.528,-0.503 0.162,-0.199 0.333,-0.41 0.503,-0.639 0.318,-0.47 0.623,-1.019 0.829,-1.651 0.224,-0.625 0.334,-1.333 0.33,-2.068 V -6.064 -6.099 L 4.05,-6.179 4.048,-6.194 4.038,-6.255 3.998,-6.5 3.917,-6.994 C 3.888,-7.314 3.76,-7.682 3.635,-8.048 3.408,-8.801 3.092,-9.423 2.792,-10.079 2.477,-10.704 2.161,-11.328 1.85,-11.943 c -0.286,-0.614 -0.598,-1.195 -0.788,-1.793 -0.094,-0.297 -0.233,-0.585 -0.288,-0.877 -0.062,-0.293 -0.124,-0.58 -0.183,-0.859 -0.058,-0.24 -0.066,-0.582 -0.077,-0.836 0.013,-0.258 0.003,-0.51 0.052,-0.757 0.054,-0.497 0.202,-0.938 0.366,-1.309 0.168,-0.368 0.355,-0.681 0.555,-0.895 0.179,-0.237 0.365,-0.377 0.49,-0.478 0.123,-0.102 0.189,-0.156 0.189,-0.156 L 2.089,-20.03 c 0,0 -0.074,0.049 -0.214,0.14 -0.141,0.091 -0.354,0.22 -0.571,0.451 -0.239,0.207 -0.474,0.518 -0.699,0.896 -0.22,0.382 -0.431,0.845 -0.549,1.379 -0.08,0.261 -0.106,0.555 -0.148,0.857 -0.018,0.306 -0.045,0.553 -0.013,0.903 0.058,0.624 0.142,1.286 0.347,1.93 0.156,0.662 0.437,1.305 0.678,1.953 0.259,0.633 0.521,1.275 0.784,1.917 0.221,0.634 0.48,1.289 0.577,1.871 0.072,0.292 0.139,0.576 0.16,0.93 l 0.052,0.498 0.025,0.247 0.006,0.061 0.002,0.016 0.001,0.007 c 10e-4,0.017 -0.01,-0.117 -0.006,-0.057 l -0.002,0.027 -0.007,0.108 c 0.022,1.141 -0.254,2.217 -0.64,3.095 -0.113,0.21 -0.212,0.42 -0.308,0.622 -0.12,0.187 -0.234,0.366 -0.341,0.533 -0.207,0.349 -0.449,0.577 -0.619,0.832 -0.436,0.43 -0.686,0.69 -0.686,0.69 z" /></g><g
   transform="translate(-221.71618,395.46537)"
   id="g386"
   style="stroke-width:0.74229419"><path
     inkscape:connector-curvature="0"
     id="path388"
     style="fill:#7f6257;fill-opacity:1;fill-rule:nonzero;stroke:none;stroke-width:0.74229419"
     d="M 0,0 C 0,0 0.048,-0.07 0.138,-0.201 0.238,-0.324 0.354,-0.528 0.479,-0.823 0.715,-1.394 0.87,-2.298 0.683,-3.348 0.645,-3.621 0.579,-3.858 0.494,-4.177 0.394,-4.433 0.29,-4.696 0.184,-4.968 -0.029,-5.511 -0.261,-6.083 -0.516,-6.66 -0.643,-6.949 -0.771,-7.244 -0.9,-7.542 L -1.096,-7.991 -1.212,-8.43 c -0.084,-0.323 -0.168,-0.65 -0.252,-0.977 -0.098,-0.331 -0.058,-0.629 -0.097,-0.941 -0.006,-0.311 -0.066,-0.606 -0.034,-0.922 0.033,-0.315 0.067,-0.629 0.1,-0.94 l 0.05,-0.461 0.116,-0.447 c 0.072,-0.296 0.143,-0.588 0.213,-0.875 0.153,-0.568 0.386,-1.091 0.526,-1.622 0.235,-0.487 0.462,-0.951 0.654,-1.398 0.258,-0.41 0.494,-0.787 0.703,-1.12 0.186,-0.367 0.455,-0.589 0.623,-0.833 0.371,-0.451 0.58,-0.742 0.58,-0.742 l -0.086,-0.121 c 0,0 -0.307,0.149 -0.838,0.47 -0.257,0.166 -0.627,0.324 -0.921,0.641 -0.31,0.3 -0.682,0.633 -1.042,1.038 -0.311,0.437 -0.648,0.922 -0.973,1.456 -0.247,0.567 -0.538,1.168 -0.717,1.825 -0.061,0.335 -0.123,0.676 -0.186,1.021 l -0.087,0.52 -10e-4,0.535 c 10e-4,0.355 0.002,0.714 0.002,1.074 10e-4,0.358 0.099,0.735 0.148,1.098 0.071,0.356 0.089,0.753 0.21,1.064 0.111,0.319 0.222,0.638 0.332,0.953 0.064,0.176 0.088,0.276 0.185,0.512 l 0.235,0.439 c 0.156,0.291 0.31,0.578 0.461,0.861 0.295,0.566 0.58,1.114 0.85,1.633 0.136,0.258 0.268,0.51 0.396,0.753 0.074,0.207 0.184,0.471 0.237,0.699 0.278,0.941 0.225,1.785 0.068,2.328 -0.077,0.267 -0.165,0.48 -0.254,0.617 -0.075,0.14 -0.116,0.215 -0.116,0.215 z" /></g><g
   transform="translate(-194.93988,372.06737)"
   id="g390"
   style="stroke-width:0.74229419"><path
     inkscape:connector-curvature="0"
     id="path392"
     style="fill:#685a52;fill-opacity:1;fill-rule:nonzero;stroke:none;stroke-width:0.74229419"
     d="m 0,0 c 0,0.625 -0.507,1.13 -1.131,1.13 -0.624,0 -1.13,-0.505 -1.13,-1.13 0,-0.624 0.506,-1.13 1.13,-1.13 C -0.507,-1.13 0,-0.624 0,0" /></g><g
   transform="translate(-188.96618,373.73587)"
   id="g394"
   style="stroke-width:0.74229419"><path
     inkscape:connector-curvature="0"
     id="path396"
     style="fill:#685a52;fill-opacity:1;fill-rule:nonzero;stroke:none;stroke-width:0.74229419"
     d="m 0,0 c 0,0.625 -0.506,1.13 -1.13,1.13 -0.624,0 -1.131,-0.505 -1.131,-1.13 0,-0.624 0.507,-1.13 1.131,-1.13 C -0.506,-1.13 0,-0.624 0,0" /></g><g
   transform="translate(-191.22698,369.89057)"
   id="g398"
   style="stroke-width:0.74229419"><path
     inkscape:connector-curvature="0"
     id="path400"
     style="fill:#685a52;fill-opacity:1;fill-rule:nonzero;stroke:none;stroke-width:0.74229419"
     d="m 0,0 c 0,0.624 -0.506,1.13 -1.13,1.13 -0.624,0 -1.13,-0.506 -1.13,-1.13 0,-0.624 0.506,-1.13 1.13,-1.13 C -0.506,-1.13 0,-0.624 0,0" /></g><g
   id="g402"
   transform="translate(-460.33438,36.979971)"
   style="stroke-width:0.74229419"><g
     id="g404"
     style="stroke-width:0.74229419" /><g
     id="g416"
     style="stroke-width:0.74229419"><g
       style="opacity:0.5;stroke-width:0.74229419"
       id="g414"
       clip-path="url(#clipPath408)"><g
         id="g412"
         transform="translate(275.1484,336.8311)"
         style="stroke-width:0.74229419"><path
           inkscape:connector-curvature="0"
           id="path410"
           style="fill:#c13a3a;fill-opacity:1;fill-rule:nonzero;stroke:none;stroke-width:0.74229419"
           d="m 0,0 c 0.517,-2.193 -2.377,-4.751 -6.463,-5.714 -4.086,-0.963 -7.817,0.034 -8.334,2.228 -0.516,2.193 2.377,4.751 6.463,5.714 C -4.248,3.19 -0.517,2.193 0,0" /></g></g></g></g><g
   transform="translate(-145.07368,393.76167)"
   id="g418"
   style="stroke-width:0.74229419"><path
     inkscape:connector-curvature="0"
     id="path420"
     style="fill:#685a52;fill-opacity:1;fill-rule:nonzero;stroke:none;stroke-width:0.74229419"
     d="M 0,0 C -0.402,0.372 -0.428,1 -0.056,1.403 0.316,1.806 0.945,1.831 1.348,1.459 1.751,1.087 1.775,0.458 1.403,0.056 1.031,-0.347 0.403,-0.372 0,0" /></g><g
   transform="translate(-149.71138,390.90037)"
   id="g422"
   style="stroke-width:0.74229419"><path
     inkscape:connector-curvature="0"
     id="path424"
     style="fill:#685a52;fill-opacity:1;fill-rule:nonzero;stroke:none;stroke-width:0.74229419"
     d="m 0,0 c -0.403,0.372 -0.428,1 -0.056,1.403 0.372,0.403 1,0.428 1.404,0.056 C 1.75,1.087 1.775,0.459 1.403,0.056 1.031,-0.347 0.402,-0.372 0,0" /></g><g
   transform="translate(-145.88228,390.06737)"
   id="g426"
   style="stroke-width:0.74229419"><path
     inkscape:connector-curvature="0"
     id="path428"
     style="fill:#685a52;fill-opacity:1;fill-rule:nonzero;stroke:none;stroke-width:0.74229419"
     d="M 0,0 C -0.402,0.372 -0.428,1 -0.056,1.403 0.316,1.806 0.945,1.831 1.348,1.459 1.751,1.087 1.775,0.458 1.403,0.056 1.031,-0.347 0.403,-0.372 0,0" /></g><g
   id="g430"
   transform="translate(-460.33438,36.979971)"
   style="stroke-width:0.74229419"><g
     id="g432"
     style="stroke-width:0.74229419" /><g
     id="g444"
     style="stroke-width:0.74229419"><g
       style="opacity:0.5;stroke-width:0.74229419"
       id="g442"
       clip-path="url(#clipPath436)"><g
         id="g440"
         transform="translate(308.3213,351.5259)"
         style="stroke-width:0.74229419"><path
           inkscape:connector-curvature="0"
           id="path438"
           style="fill:#c13a3a;fill-opacity:1;fill-rule:nonzero;stroke:none;stroke-width:0.74229419"
           d="m 0,0 c 1.107,-1.641 4.483,-1.298 7.541,0.765 3.057,2.063 4.638,5.066 3.53,6.706 C 9.964,9.112 6.588,8.77 3.53,6.707 0.474,4.644 -1.107,1.641 0,0" /></g></g></g></g><g
   id="g446"
   transform="translate(-460.33438,36.979971)"
   style="stroke-width:0.74229419"><g
     id="g448"
     style="stroke-width:0.74229419" /><g
     id="g460"
     style="stroke-width:0.74229419"><g
       style="opacity:0.19999701;stroke-width:0.74229419"
       id="g458"
       clip-path="url(#clipPath452)"><g
         id="g456"
         transform="translate(262.8291,283.0039)"
         style="stroke-width:0.74229419"><path
           inkscape:connector-curvature="0"
           id="path454"
           style="fill:#352d2c;fill-opacity:1;fill-rule:nonzero;stroke:none;stroke-width:0.74229419"
           d="m 0,0 c 0,0 3.285,-21.715 6.882,-25.497 l 4.237,3.29 18.33,-29.547 18.666,-11.367 -13.369,22.888 -21.522,27.147 z" /></g></g></g></g><g
   transform="translate(-192.47698,336.43507)"
   id="g462"
   style="stroke-width:0.74229419"><path
     inkscape:connector-curvature="0"
     id="path464"
     style="fill:#efd4c2;fill-opacity:1;fill-rule:nonzero;stroke:none;stroke-width:0.74229419"
     d="m 0,0 c -3.141,-2.779 -4.115,-7.402 -3.484,-11.548 0.63,-4.146 2.629,-7.942 4.651,-11.615 11.935,-21.677 22.823,-33.39 38.386,-52.628 1.66,-2.052 3.949,-4.309 6.51,-3.671 1.968,0.489 3.157,2.634 3.217,4.661 0.061,2.027 -0.748,3.967 -1.543,5.833 -7.924,18.617 -12.896,28.324 -20.806,46.948 -2.367,5.571 -3.207,12.763 -6.869,17.602 C 15.717,1.326 6.183,5.539 0,0" /></g><g
   transform="translate(-134.56188,272.78267)"
   id="g466"
   style="stroke-width:0.74229419"><path
     inkscape:connector-curvature="0"
     id="path468"
     style="fill:#efd4c2;fill-opacity:1;fill-rule:nonzero;stroke:none;stroke-width:0.74229419"
     d="m 0,0 c 0.663,0.355 1.401,0.723 2.147,0.578 0.941,-0.182 1.494,-1.089 1.89,-1.917 1.234,-2.579 2.128,-5.304 2.652,-8.092 0.389,-2.057 0.507,-4.386 -0.87,-6.021 -1.377,-1.634 -4.743,-1.634 -5.364,0.372 1.191,-3.848 -14.893,-4.088 -17.119,1.151 C -19.571,-7.086 -4.847,-2.597 0,0" /></g><g
   id="g470"
   transform="translate(-460.33438,36.979971)"
   style="stroke-width:0.74229419"><g
     id="g472"
     style="stroke-width:0.74229419" /><g
     id="g484"
     style="stroke-width:0.74229419"><g
       style="opacity:0.5;stroke-width:0.74229419"
       id="g482"
       clip-path="url(#clipPath476)"><g
         id="g480"
         transform="translate(296.71,272.9497)"
         style="stroke-width:0.74229419"><path
           inkscape:connector-curvature="0"
           id="path478"
           style="fill:#ad9586;fill-opacity:1;fill-rule:nonzero;stroke:none;stroke-width:0.74229419"
           d="m 0,0 c 0,0 -15.513,-5.095 -19.598,-10.167 l -1.497,2.331 c 0,0 14.725,8.513 21.095,7.836" /></g></g></g></g><g
   id="g486"
   transform="translate(-460.33438,36.979971)"
   style="stroke-width:0.74229419"><g
     id="g488"
     style="stroke-width:0.74229419" /><g
     id="g500"
     style="stroke-width:0.74229419"><g
       style="opacity:0.19999701;stroke-width:0.74229419"
       id="g498"
       clip-path="url(#clipPath492)"><g
         id="g496"
         transform="translate(281.0625,304.2559)"
         style="stroke-width:0.74229419"><path
           inkscape:connector-curvature="0"
           id="path494"
           style="fill:#352d2c;fill-opacity:1;fill-rule:nonzero;stroke:none;stroke-width:0.74229419"
           d="m 0,0 c -2.13,1.202 -4.524,2.005 -6.97,2.031 -1.137,0.012 -2.275,-0.143 -3.375,-0.432 -4.29,-1.13 -7.951,-4.421 -9.53,-8.567 3.798,-0.85 6.879,-1.615 10.451,-1.442 3.589,0.174 7.426,1.485 11.015,1.659 1.035,0.05 4.111,-0.335 4.833,0.426 0.928,0.979 -1.341,2.509 -1.955,3.053 C 3.085,-2.046 1.613,-0.91 0,0" /></g></g></g></g><g
   transform="translate(-197.94868,322.81147)"
   id="g502"
   style="stroke-width:0.74229419"><path
     inkscape:connector-curvature="0"
     id="path504"
     style="fill:#e0492b;fill-opacity:1;fill-rule:nonzero;stroke:none;stroke-width:0.74229419"
     d="m 0,0 c 0.461,-4.215 1.842,-8.268 3.213,-12.281 1.474,-4.313 2.953,-8.638 4.913,-12.754 2.242,3.012 5.745,4.769 9.117,6.42 6.06,2.968 12.436,6.006 19.178,5.762 -2.108,9.319 -4.587,19.134 -11.352,25.881 -1.698,1.695 -3.634,3.151 -5.733,4.313 -2.647,1.465 -5.727,2.474 -8.688,1.85 C 2.413,17.455 -0.798,7.299 0,0" /></g><g
   transform="translate(-102.61858,244.22707)"
   id="g506"
   style="stroke-width:0.74229419"><path
     inkscape:connector-curvature="0"
     id="path508"
     style="fill:#c9c7b8;fill-opacity:1;fill-rule:nonzero;stroke:none;stroke-width:0.74229419"
     d="m 0,0 -141.813,52.849 c 0,0 -101.118,-48.669 -143.353,-42.884 0,0 5.263,-3.414 17.936,-7.522 l 122.971,25.273 z" /></g><g
   transform="translate(-246.87738,267.66847)"
   id="g510"
   style="stroke-width:0.74229419"><path
     inkscape:connector-curvature="0"
     id="path512"
     style="fill:#ededdd;fill-opacity:1;fill-rule:nonzero;stroke:none;stroke-width:0.74229419"
     d="m 0,0 v 22.08 l 145.872,-45.521 c 0,0 16.04,-4.084 18.36,-10.581 L 125.941,-35.04 0,-1.256" /></g><g
   transform="translate(-246.87738,289.74807)"
   id="g514"
   style="stroke-width:0.74229419"><path
     inkscape:connector-curvature="0"
     id="path516"
     style="fill:#dbdac8;fill-opacity:1;fill-rule:nonzero;stroke:none;stroke-width:0.74229419"
     d="m 0,0 -140.907,-46.163 c 0,0 2.7,-5.551 0,-12.033 L 0,-29.906 c 0,0 5.503,21.034 0,29.906" /></g><g
   transform="translate(-250.76748,268.36177)"
   id="g518"
   style="stroke-width:0.74229419"><path
     inkscape:connector-curvature="0"
     id="path520"
     style="fill:#703c25;fill-opacity:1;fill-rule:nonzero;stroke:none;stroke-width:0.74229419"
     d="M 0,0 148.149,-35.459 -26.027,-67.212 -132.362,-41.339 Z" /></g><g
   transform="translate(-250.76748,268.36177)"
   id="g522"
   style="stroke-width:0.74229419"><path
     inkscape:connector-curvature="0"
     id="path524"
     style="fill:none;stroke:#703c25;stroke-width:3.43533731;stroke-linecap:round;stroke-linejoin:round;stroke-miterlimit:10;stroke-dasharray:none;stroke-opacity:1"
     d="M 0,0 148.149,-35.459 -26.027,-67.212 -132.362,-41.339 Z" /></g><g
   transform="translate(-82.64488,228.76027)"
   id="g526"
   style="stroke-width:0.74229419"><path
     inkscape:connector-curvature="0"
     id="path528"
     style="fill:#703c25;fill-opacity:1;fill-rule:nonzero;stroke:none;stroke-width:0.74229419"
     d="m 0,0 -181.671,-32.528 c 0,0 -5.972,-0.912 -12.279,3.068 L -23.27,4.886 -10.204,2.331 Z" /></g><g
   transform="translate(-98.70258,233.64597)"
   id="g530"
   style="stroke-width:0.74229419"><path
     inkscape:connector-curvature="0"
     id="path532"
     style="fill:#a09d90;fill-opacity:1;fill-rule:nonzero;stroke:none;stroke-width:0.74229419"
     d="M 0,0 C 0,0 16.064,7.283 27.622,4.987 L 16.634,-2.355 0,-0.451" /></g><g
   transform="translate(-101.00528,233.64597)"
   id="g534"
   style="stroke-width:0.74229419"><path
     inkscape:connector-curvature="0"
     id="path536"
     style="fill:none;stroke:#703c25;stroke-width:3.43533731;stroke-linecap:round;stroke-linejoin:round;stroke-miterlimit:10;stroke-dasharray:none;stroke-opacity:1"
     d="M 0,0 C 0,0 19.727,-10.055 30.912,6.338" /></g><g
   transform="translate(-239.25818,280.90377)"
   id="g538"
   style="stroke-width:0.74229419"><path
     inkscape:connector-curvature="0"
     id="path540"
     style="fill:#c9c7b8;fill-opacity:1;fill-rule:nonzero;stroke:none;stroke-width:0.74229419"
     d="m 0,0 c 0,0 2.144,-0.609 5.896,-1.678 3.746,-1.083 9.121,-2.558 15.531,-4.458 12.829,-3.774 29.933,-8.807 47.038,-13.84 17.057,-5.19 34.114,-10.38 46.907,-14.274 6.4,-1.936 11.702,-3.653 15.428,-4.807 3.721,-1.168 5.848,-1.836 5.848,-1.836 l -0.017,-0.054 -136.648,40.892 z" /></g><g
   transform="translate(-235.40178,276.56587)"
   id="g542"
   style="stroke-width:0.74229419"><path
     inkscape:connector-curvature="0"
     id="path544"
     style="fill:#c9c7b8;fill-opacity:1;fill-rule:nonzero;stroke:none;stroke-width:0.74229419"
     d="m 0,0 c 0,0 2.032,-0.543 5.589,-1.491 3.552,-0.965 8.647,-2.271 14.724,-3.966 12.162,-3.368 28.376,-7.857 44.592,-12.348 16.17,-4.648 32.341,-9.298 44.469,-12.784 6.066,-1.732 11.093,-3.28 14.625,-4.315 3.528,-1.05 5.544,-1.651 5.544,-1.651 l -0.016,-0.054 -129.543,36.552 z" /></g><g
   transform="translate(-225.91058,267.97607)"
   id="g546"
   style="stroke-width:0.74229419"><path
     inkscape:connector-curvature="0"
     id="path548"
     style="fill:#c9c7b8;fill-opacity:1;fill-rule:nonzero;stroke:none;stroke-width:0.74229419"
     d="m 0,0 c 0,0 1.927,-0.441 5.299,-1.214 3.369,-0.788 8.199,-1.84 13.963,-3.233 11.534,-2.764 26.912,-6.448 42.291,-10.132 15.339,-3.844 30.677,-7.688 42.182,-10.57 5.755,-1.431 10.525,-2.729 13.876,-3.588 3.347,-0.874 5.26,-1.373 5.26,-1.373 l -0.014,-0.057 -122.871,30.11 z" /></g><g
   transform="translate(-249.28608,282.29537)"
   id="g550"
   style="stroke-width:0.74229419"><path
     inkscape:connector-curvature="0"
     id="path552"
     style="fill:#c9c7b8;fill-opacity:1;fill-rule:nonzero;stroke:none;stroke-width:0.74229419"
     d="m 0,0 c 0,0 -2.105,-0.699 -5.789,-1.922 -3.689,-1.207 -8.936,-3.004 -15.273,-5.031 -12.666,-4.079 -29.555,-9.518 -46.443,-14.957 -16.939,-5.281 -33.877,-10.564 -46.58,-14.526 -6.349,-1.99 -11.672,-3.546 -15.383,-4.684 -3.716,-1.122 -5.839,-1.764 -5.839,-1.764 l -0.018,0.055 135.307,42.884 z" /></g><g
   transform="translate(-274.42668,200.31587)"
   id="g554"
   style="stroke-width:0.74229419"><path
     inkscape:connector-curvature="0"
     id="path556"
     style="fill:#5e3120;fill-opacity:1;fill-rule:nonzero;stroke:none;stroke-width:0.74229419"
     d="m 0,0 c 0,0 2.617,0.601 7.197,1.652 4.59,1.003 11.129,2.527 19.007,4.192 7.879,1.663 17.057,3.675 26.917,5.699 4.931,1.008 10.025,2.05 15.203,3.108 5.181,1.038 10.444,2.094 15.708,3.149 5.268,1.028 10.537,2.056 15.723,3.069 5.19,0.993 10.298,1.97 15.242,2.915 9.886,1.885 19.14,3.514 27.059,4.977 7.919,1.462 14.546,2.538 19.172,3.358 4.636,0.771 7.284,1.211 7.284,1.211 0,0 -2.617,-0.601 -7.197,-1.653 -4.59,-1.003 -11.127,-2.531 -19.007,-4.194 -7.879,-1.662 -17.056,-3.678 -26.917,-5.698 -4.931,-1.008 -10.025,-2.05 -15.202,-3.107 C 95.007,17.64 89.744,16.585 84.481,15.53 79.211,14.502 73.943,13.474 68.757,12.462 63.566,11.47 58.458,10.493 53.516,9.549 43.627,7.667 34.375,6.034 26.456,4.571 18.537,3.112 11.91,2.032 7.284,1.212 2.649,0.44 0,0 0,0" /></g><g
   transform="translate(-250.96718,266.35697)"
   id="g558"
   style="stroke-width:0.74229419"><path
     inkscape:connector-curvature="0"
     id="path560"
     style="fill:#5e3120;fill-opacity:1;fill-rule:nonzero;stroke:none;stroke-width:0.74229419"
     d="m 0,0 -17.765,-4.914 34.91,2.863 z" /></g></g><g
       id="g562"
       transform="translate(500.00004,142.141)"
       mask="none"><path
         d="m 0,0 c -4.722,2.873 -9.78,5.204 -15.186,6.88 -25.747,7.981 -54.412,6.11 -78.444,-6.426 -24.032,-12.535 -42.969,-35.898 -49.603,-63.12 -11.588,15.673 -33.898,20.02 -51.557,12.855 -17.659,-7.165 -30.634,-23.988 -37.176,-42.583 -35.577,6.15 -73.891,-13.922 -90.492,-47.41 55.118,-0.779 110.236,-1.557 165.354,-2.337 H 0 Z"
         style="fill:#aae5e3;fill-opacity:1;fill-rule:nonzero;stroke:none"
         id="path564"
         inkscape:connector-curvature="0" /></g><flowRoot
       xml:space="preserve"
       id="flowRoot2177"
       style="font-style:normal;font-variant:normal;font-weight:normal;font-stretch:normal;font-size:18.74266624px;line-height:1.25;font-family:'Arial Black';-inkscape-font-specification:'Arial Black, ';font-variant-ligatures:normal;font-variant-caps:normal;font-variant-numeric:normal;font-feature-settings:normal;text-align:start;letter-spacing:0px;word-spacing:0px;writing-mode:lr-tb;text-anchor:start;fill:#000000;fill-opacity:1;stroke:none"
       transform="matrix(0.75000002,0,0,-0.75000002,-922.03397,500)"><flowRegion
         id="flowRegion2179"
         style="font-style:normal;font-variant:normal;font-weight:normal;font-stretch:normal;font-family:'Arial Black';-inkscape-font-specification:'Arial Black, '"><rect
           id="rect2181"
           width="861.22241"
           height="608.11505"
           x="626.19415"
           y="-79.506996"
           style="font-style:normal;font-variant:normal;font-weight:normal;font-stretch:normal;font-family:'Arial Black';-inkscape-font-specification:'Arial Black, '" /></flowRegion><flowPara
         id="flowPara2183" /></flowRoot><g
       style="stroke-width:1.36141956"
       transform="matrix(1,0,0,0.5395305,-63.69094,77.537147)"
       id="g2211"
       mask="none"><path
         inkscape:connector-curvature="0"
         id="path2209"
         style="fill:#aae5e3;fill-opacity:1;fill-rule:nonzero;stroke:none;stroke-width:1.36141956"
         d="m 44.375965,-64.428735 c -4.722,2.873 -31.967982,54.013648 -37.3739823,55.6896477 C -18.745017,-0.75808726 -69.598,12.99 -93.63,0.454 c -24.032,-12.535 -42.969,-35.898 -49.603,-63.12 -11.588,15.673 -33.898,20.02 -51.557,12.855 -17.659,-7.165 -30.634,-23.988 -37.176,-42.583 -35.577,6.15 -73.891,-13.922 -90.492,-47.41 55.118,-0.779 110.236,-1.557 165.354,-2.337 H 0 Z"
         sodipodi:nodetypes="ccccsccccc" /></g><g
       id="g2239"
       mask="none"><g
         id="g2215"
         transform="matrix(0.73819489,0,0,0.37457207,-417.42574,9.7250325)"
         style="fill:#d5f6ff;stroke-width:1.90172112"><path
           d="m 18.489988,0 c 4.835,31.977 -11.5310004,66.261 -38.871,81.429 -27.34,15.168 -63.653,10.109 -86.245998,-12.015 8.524998,40.46 -14.817,85.62 -51.848,100.313 -17.029,6.755 -35.647,7.499 -53.858,7.283 -10.658,-0.125 -21.855,-0.646 -32.844,-2.371 V -25.963 H 93.822986 c -5.152,7.997 -9.893,16.521 -16.578,23.036 -15.598,15.2 -41.846998,16.508 -58.754998,2.927"
           style="fill:#d5f6ff;fill-opacity:1;fill-rule:nonzero;stroke:none;stroke-width:1.90172112"
           id="path2213"
           inkscape:connector-curvature="0" /></g></g><g
       style="stroke-width:0.83197737"
       id="g2219"
       transform="matrix(1.3452334,0,0,1.0739388,-791.433,160.21665)"
       mask="none"><path
         style="fill:#80d8d4;fill-opacity:1;fill-rule:nonzero;stroke:none;stroke-width:1.33333361"
         d="m 155.97852,452.20508 c -32.56987,0.30466 -64.340117,10.09887 -92.021489,24.2793 -17.927476,9.18432 -28.322183,15.28261 -35.042969,30.5039 C 22.727783,520.9996 12.397312,533.70661 9.3378906,548.82031 -2.6740592e-4,594.95131 0,627.75363 0,666.66602 h 609.44922 c -24.87068,-4.01654 -49.26848,-10.08295 -72.7168,-18.08594 -4.5702,-1.56079 -9.16909,-3.22672 -13.0039,-5.82422 -4.72626,-3.20177 -8.0059,-7.62354 -11.10352,-11.99805 -12.78151,-18.04933 -24.37674,-37.16991 -42.5625,-51.63086 -18.18217,-14.46237 -45.09394,-23.53762 -68.75391,-16.50976 -8.64895,-20.95326 -31.126,-37.50587 -57.10156,-42.05078 -25.97376,-4.54634 -54.51234,3.07768 -72.50976,19.36718 3.01332,-43.65776 -45.59704,-81.51754 -97.5625,-86.88867 -6.06533,-0.62691 -12.1248,-0.89626 -18.15625,-0.83984 z"
         transform="matrix(0.55752408,0,0,-0.69836383,-97.084248,316.38986)"
         id="path2217"
         inkscape:connector-curvature="0" /></g><g
       id="g2245"
       transform="matrix(1.1134757,0,0,1.1134757,580.69438,1.1714311)"
       style="stroke-width:0.89808875"><g
         style="fill:#d5f6ff;stroke-width:1.70791435"
         transform="matrix(0.73819489,0,0,0.37457207,-417.42574,9.7250325)"
         id="g2243"><path
           inkscape:connector-curvature="0"
           id="path2241"
           style="fill:#d5f6ff;fill-opacity:1;fill-rule:nonzero;stroke:none;stroke-width:1.70791435"
           d="m 18.489988,0 c 4.835,31.977 -11.5310004,66.261 -38.871,81.429 -27.34,15.168 -63.653,10.109 -86.245998,-12.015 8.524998,40.46 -7.31869,100.39744 -44.34969,115.09044 -17.029,6.755 -43.14531,13.40998 -61.35631,13.19398 -10.658,-0.125 -23.36172,-12.24604 -32.844,-23.05942 -65.53917,-74.739359 -82.48144,-203.410674 -82.48144,-203.410674 L 93.822986,-25.963 c -5.152,7.997 -9.893,16.521 -16.578,23.036 -15.598,15.2 -41.846998,16.508 -58.754998,2.927"
           sodipodi:nodetypes="cscccscccc" /></g></g></g></svg>