<svg width="1466.7" height="1066.7" version="1.1" viewBox="0 0 1466.7 1066.7" xml:space="preserve" xmlns="http://www.w3.org/2000/svg"><g transform="matrix(1.3333 0 0 -1.3333 0 1066.7)"><g transform="scale(.1)"><path d="m0 0h11000v8e3h-11000z" fill="#fff"/><path d="m8963.3 454.41c-57.39 0-115.09 2.32-173.45 7.981-222.92 21.64-448.88 32.449-670.69 63.328-509.07 70.871-1018.4 75.062-1531.1 75.062-203.6 0-407.19 1.969-610.75 1.969-296.37 0-592.63-4.191-888.42-24.77-461.44-32.121-923.59-37.242-1385.9-37.242-69.75 0-139.56 0.121-209.31 0.282-4.5 0.011-8.97 0.011-13.47 0.011-255.95 0-510.91-16.402-766.48-27.98-256.72-11.641-506.35-30.75-761.58-30.75-23.02 0-46.11 0.148-69.23 0.488-255.02 3.641-643.34 80.91-825.28 277.84-108.02 117.02-93.377 398.52 14.81 511.33 47.26 49.29 123.44 87.89 185.68 111.37 177.28 66.9 357.7 67.07 542.95 68.45 2.28 0.02 4.53 0.03 6.81 0.03 12.79 0 25.62-0.27 38.49-0.79l-62.61-428.77 165.14-45.43 154.57 435.21c29.66-7.37 58.95-15.52 87.66-24.25 111.47-33.87 225.35-45.74 338.72-66.82 11.96-2.23 24.03-4.3 36.2-6.23l65.03-398.14 156.02 13.32 21.95 365.57c3.66-0.03 7.33-0.04 10.99-0.04 63.86 0 127.29 3.5 188.11 10.3 74.5 8.32 149.23 14.63 224.03 20.38-0.34-10.87 0.31-21.19 3.08-29.57 14.55-44.03 78.56-54.92 118.88-59.68 27.56-3.25 55.31-4.88 83.06-4.88 7.67 0 15.34 0.12 23 0.37 7.22 37.84 15.33 75.55 24.14 113.15 6.42 0.54 12.85 1.1 19.26 1.66 132.99 11.68 264.14 32.2 395.64 50.89-2.96-44-6.77-87.86-11.75-131.54 33.45-11.63 67.78-20.74 102.6-27.23 16.83-3.15 38.02-6.5 58.9-6.5 28.65 0 56.74 6.3 72.35 28.11 13.8 19.28 17.16 56.57 23.02 79.23 7.91 30.53 15.53 61.13 22.96 91.78 83.69 12.37 166.3 31.7 250.36 41.43 270.61 31.3 541.7 38.08 812.79 38.92 21.99 0.06 43.96 0.09 65.94 0.09 129.06 0 258.12-1 387.1-1 97.92 0 195.75 0.28 293.61 0.32 4.56-128.23 7.43-256.58 5.47-385.66-0.72-48.52-19.22-111.99 20.86-147.52 13.15-11.66 27.08-17.89 40.03-17.89 16.49 0 31.39 10.109 41.09 32 17.71 39.958 14.64 86.288 20.72 128.64 18.86 131.26 54.85 260.08 83.55 389.93 137.54-0.84 275.09-2.92 412.5-7.72 3.18-61.73 7.9-123.41 11.67-185.08 6.56-107.55-15.11-218.41 35.91-318.09 10.1-19.729 27.39-35.678 45.29-35.678 10.46 0 21.11 5.449 30.67 18.757 19.96 27.821 10.77 75.971 15.71 108.27 20.61 135.02 51.11 268.17 80.03 401.62 84.26-4.98 168.5-11.28 252.7-19.25 110.89-10.49 221.06-4.14 330.41-29.1 109.78-25.05 220.61-47.91 333.1-52.38 96.23-3.82 192.73-5.07 289.35-5.07 171.89 0 344.11 3.98 515.42 4.62 17.16 0.07 41.03 0.18 70.65 0.18 383.45 0 1719.2-18.32 1623.4-389.02-36.8-142.45-250.87-327.85-370.94-387.52-151.69-75.391-317.57-119.99-484.54-135.03-140.73-12.668-277.94-26.27-416.9-26.27" fill="#f6eaea"/><path d="m3500.9 4064.9c-2.28 1.89-4.65 3.82-7.28 4.94-24.54 10.47-43.6 1.23-69.97 4.57-11.76 1.49-24.98 28.97-40.94 10.05-5.89-6.99-17.92-26.16-30.34-41.18-18.11-21.89-54.3-38.7-85.49-46.74-41.92-10.81-86.55-21.28-129.27-25.68-89.76-9.22-190.68-9.61-280.67-1.58 6.63 149.2-77.35 298.84-208.17 370.89-13.67 7.53-28.37 14.41-43.98 14.57-13.2 0.13-26-4.59-37.74-10.6-124.23-63.62-58.64-178.6-9.67-273.47 30.56-59.21 65.35-117.37 104.33-171.46 54.59-75.74 133.58-90.82 224.54-88.1 96.39 2.88 193.98 7.53 287.94 30.93 45.66 11.37 85.9 30.52 129.27 47.58 42.85 16.86 47.96-3.17 89.27 1.97 23.04 2.86 47.08 1.42 69.27 8.55 39.8 12.78 53.5 53.72 68.99 88.31 3.85 8.61 6.49 14.42 5.91 23.24-0.94 14.35-10.12 24.87-18.85 35.63-5.17 6.37-10.88 12.36-17.15 17.58" fill="#e5d1bd"/><path d="m2523.1 3990.2c28.18-43.09 57.68-84.16 87.63-122.6 44.66-57.32 95-118.37 165.9-134.29 27.32-6.14 55.7-4.93 83.68-3.55 132.62 6.58 265.08 16.48 397.21 29.7 9.82 69.05 9.1 139.59-2.13 208.42-3.15 19.32-7.96 39.98-22.78 52.76-22.01 19-55.37 12.58-83.46 5.08-45.76-12.22-91.51-24.43-137.26-36.65-14.84-3.96-31.43-7.75-44.93-0.4-8.81 4.8-14.64 13.56-19.97 22.06-100.83 160.7-153.37 313.91-209.41 493.63-24.71 79.22-50.93 161.12-106.47 222.77-118.61 131.63-338.29 53.22-330.57-129.93 8.8-208.82 104.09-425.83 222.56-607" fill="#d67086"/><path d="m6591.4 2084.8 6.89-418.7c-2.82-116.17 7.65-231.98 14.72-347.77 6.56-107.55-15.11-218.41 35.91-318.09 16-31.249 50.05-53.018 75.96-16.921 19.96 27.821 10.77 75.971 15.71 108.27 37.06 242.73 106.04 479.44 140.46 722.62 36.06 254.74-62.49 248.01-289.65 270.59" fill="#eacdb0"/><path d="m6615.2 1071.9-26.92-69.85 132.47-116.6 121.34-5 39.25 64.031-163.21 141.91-102.93-14.49" fill="#292949"/><path d="m6294.8 2080.8-76.37-411.76c-26.47-184.19-86.65-363.57-113.12-547.77-6.08-42.35-3.01-88.68-20.72-128.64-17.31-39.082-51.21-40.622-81.12-14.11-40.08 35.528-21.58 98.998-20.86 147.52 4.91 323.26-20.52 641.93-26.63 965.71-0.08 4.24 0.1 9.11 3.39 11.8 2.66 2.2 6.47 2.15 9.91 1.92 31.44-2.1 323.87-33.56 325.52-24.67" fill="#eacdb0"/><path d="m5981.7 1054.7-41.99-61.971 102.73-143.49 117.09-32.262 52.68 53.52-126.96 175.08-103.55 9.12" fill="#292949"/><path d="m7023 1818.4-57.12 598.62-27.55 388.94-92.63 317.67-500.13 77.62-618.34-105.98-29.72-120.14 119-1112 596.41-44.7-8.09 692.12 92-429-3.91-263.12h530.08" fill="#1a3151"/><path d="m5858.5 4293.2c-0.84-20.21-1.39-40.41-1.75-60.57-7.24-410.61 15.4-826.45 18-1240.5 212.04 33.2 426.4 51.48 640.99 54.72 49.68 0.76 275.51-34.12 306.95-4.46 42.67 40.24-4.26 32.66-1.13 85.1 4.04 67.84-28.56 123.4-16.25 203.79 14.48 94.48 43.26 187.93 59.85 282.4 33.24 189.42 53.26 381.16 59.76 573.36 5.75 170.48-0.43 347.28-73.74 501.3-180.79 379.81-763.65 372.98-923.58-23.59-47.37-117.46-63.82-244.63-69.1-371.58" fill="#fff"/><path d="m6516.2 4826-158.31-288.5c8.28-291.43 16.55-582.86 24.82-874.3 3.81-134.31 7.63-268.62 11.44-402.93 1.32-46.63 2.48-93.28 3.97-139.91 0.67-20.93-5.11-56.17 6.83-73.25 25.91-37.08 120.66-25.52 161.98-28.77 64.45-5.07 129.84-10.34 190.54-32.59 40.42-14.81 78.72-37.12 121.35-43.11 9.58-1.34 20.29-1.53 27.81 4.55 8.41 6.79 9.85 18.85 10.64 29.63 14.82 200.08 15.12 406.34 26.22 608.56 8.73 159.04 30.27 319.35 22.68 478.62-7.81 163.82-33.45 326.79-64.77 487.59-18.54 95.2-40.34 192.26-92.74 273.87-59.41 92.51-143.5 129.57-247.09 150.43-36.58 7.36-172.75 58.85-150.02-24.32 11.24-41.14 76.88-92.53 104.65-125.57" fill="#474ebb"/><path d="m6171.8 4798.9 158.3-288.5c-3.31 0-20.07-707.18-21.42-754.91-5.16-181.53-10.31-363.06-15.46-544.59-1.43-50.45 5.35-109.56-4.52-159.15-13.78-69.25-86.67-55.62-148.79-61.22-135.87-12.25-278.92-35.44-415.16-28.56-39.3 1.98 12.42 822.14 12.35 898.67-0.27 275.27-57.06 580.67 82.77 830.3 40.69 72.63 112.41 189.07 191.58 224.93 73.78 33.42 179.39 39.1 259.48 57.83l4.17-51.9-103.3-122.9" fill="#474ebb"/><path d="m6515.4 5497.7c24.93-43.68 36.94-93.99 39.15-144.23 0.59-13.36 1.5-28.78 12.3-36.67 11.56-8.44 1.4-26.96 10.19-15.67 8.8 11.3 38.66 50.52 40 64.77 3.15 33.39 3.1 67.08-0.14 100.46-2.82 29.03-8.75 59.36-27.75 81.49-11.26 13.13-26.29 22.35-41.09 31.29-21.47 12.97-43.59 26.05-68.24 30.65-42.5 7.91-68.56-7.33-31.07-36.97 26.87-21.22 49.58-45.2 66.65-75.12" fill="#292949"/><path d="m6249.8 4927.8c0.29-20.56-3.93-41.89 14.21-57.83 8.72-7.67 20.51-10.74 31.98-12.56 29.63-4.69 60.35-2.51 89.03 6.32 11.8 3.64 23.55 8.57 32.46 17.12 10.53 10.1 11.06 19.68 11.56 32.91 0.59 15.5 3.73 31.25 5.75 46.97 4.44 34.37 6.44 69.02 7.43 103.65 50.92 8.74 110.8 25.2 128.21 78.54 5.48 16.8 5.67 35.07 5.8 52.95 0.55 73.89 1.09 147.78 1.63 221.68 0.19 25.55 0.24 51.89-8.51 75.61-15.36 41.61-54.38 66.42-92.64 82.03-97.65 39.83-211.47 38.24-301.6-18.42-23.98-15.07-46.62-34.46-60.44-60.79-21.3-40.59-18.62-90.71-15.31-137.55 3.05-43.23 6.1-86.47 9.16-129.7 3.51-49.73 10.98-106.96 49.59-133.23 20.51-13.94 47-16.5 64.67-34.54 30.85-31.5 16.14-78.55 25.26-116.72 1.28-5.34 1.69-10.86 1.76-16.44" fill="#eacdb0"/><path d="m6409.9 5121.3c-26.53-17.84-55.76-18.8-85.33-9.9-12.57 3.78-7.24 24.88 5.35 21.09 24.5-7.38 47.63-7.19 69.72 7.66 11.11 7.47 21.31-11.43 10.26-18.85zm184.3 104.05c-0.83 13.7-6.81 53.85-27.42 28.62-5.38-6.6-6.71-15.93-7.04-24.71-0.34-8.79 0.06-17.83-2.7-26.11-6.36-18.99-27.37-27.63-46.1-27.29-7.44 0.13-15.03 1.35-21.61 5.1-6.39 3.64-11.46 9.42-16.41 15.1-12.02 13.79-24.03 27.57-36.04 41.36-20.65 23.7-61.62 13.45-89.45 9.82-32.06-4.19-64.15-13.87-90.35-34.97-2.65-2.13-5.23-4.36-7.82-6.6-6.32-5.45-12.67-10.84-20.01-14.42-24.77-12.06-55.44 0.53-72.8 23.09-7.96 10.34-15.38 23.64-27.73 25.37-9.67 1.35-19.08-5.58-24.04-14.62-4.96-9.05-6.3-19.84-6.97-30.32-2.44-38.17 2.82-77.53 19.36-111.38 35.88-73.41 105.24-82.42 174.95-80.78 27.55 0.65 55.1 1.3 82.66 1.95 50.37 1.19 103.62 3.28 146.06 32.56 37.43 25.84 59.68 69.76 68.8 115.76 4.71 23.74 6.12 48.25 4.66 72.47" fill="#292949"/><path d="m6604.7 5625.8c4.87 17.91 8.47 36.16 10.75 54.58-17.04-5.98-35.61-7.58-53.43-4.58-0.04 10.62-0.08 21.25-0.12 31.88-0.08 8.83-119.63 15.02-129.35 15.82-90.94 7.46-174.11 14.55-256.34-34.25-70.25-41.7-115.29-103.95-126.06-184.99-10.3-77.42 15.04-178.54 59.81-242.8-0.26 20.62-12.12 69.23-7.26 88.82 2.98 19.63 9.76 38.56 19.12 56.04 18.68 34.89 47.62 64.25 81.06 85.21 53.3 33.4 115.27 51.06 177.17 59.69 56.71 7.9 125.82 15.18 181.84 0.16 26.93-7.22 31.4-13.98 47.71 13.21 2.88 4.79 25.68 60.75 23.45 60.79-9.45 0.14-18.9 0.28-28.35 0.42" fill="#292949"/><path d="m6968.5 4549.9c-26.25 0.56-51.03 12.38-72.92 26.87-87.49 57.92-125.52 163.82-173.61 252.72-28.68 53.02-56.77 131.69-101.24 172.77-8.34 7.7-104 53.17-103.2 56.15l4.85 26.15 26-5 15.43 10.57-69.62 35.99 45.7 77 103.71 2.61c30.21-57.72 46.11-124.5 89.66-174.07 18.42-20.97 40.12-38.76 60.27-58.08 34.59-33.18 64.44-70.77 95.73-106.97 40.08-46.39 101.07-84.21 124.53-142.41 13.09-32.45 34.63-105.54 19.69-138.08-10.96-23.85-38.74-36.77-64.98-36.22" fill="#eacdb0"/><path d="m7044.7 4668.6c6.33-0.98 13.1-2.17 17.68-6.65 5.14-5.01 6.16-12.78 6.74-19.93 6.73-82.37-6.04-164.97-19.63-246.49-18.89-113.4-42.94-233.58-122.49-316.56-45.84-47.81-120.03-79.62-178.44-48.37-51.08 27.32-69.8 90.64-77.75 148.03-23.52 169.64 5.33 346.18 81.65 499.5 5.1 10.25 10.74 20.78 20.02 27.48 22.76 16.43 93.79-9.36 120.66-13.53 50.52-7.82 101.04-15.65 151.56-23.48" fill="#474ebb"/><path d="m5738.6 5020.7c34.14 28.02 46.69 74.46 31.36 116-28.03 75.9-56.05 151.81-84.08 227.71-15.73 42.62-45.77 93.42-46.31 137.88-0.96 78.58 27.04 167.69 43.16 244.29 8.18 38.89 11.19 93.9 31.6 128.22 3.82 6.43 55.78 53.12 54.71 54.85l-7.97 15.63-15.5-8.04-11.74 3.79 37.27 35.81-43.34 40.11-66.06-17.8c-8.27-42.16-5.8-87.36-24.03-126.88-7.71-16.71-18.1-32.02-27.21-48.02-15.65-27.47-27.47-56.83-40.46-85.59-12.56-27.82-30.62-53.26-42.61-80.81-26.74-61.47-53.04-123.14-79.56-184.71l122.91-401.47c21.92-71.6 110.09-98.37 167.86-50.97" fill="#eacdb0"/><path d="m6031 4983c-49.84 21.73-96.82 50.93-135.38 86.66-17.75 16.45-97.98 168.61-83.37 172.62-1.23-0.39-2.47-0.78-3.7-1.17l-10.8-4.02-1.47 0.16c-23.96 2.43-67.16-21.4-90.5-28.82-75.79-24.1-150.86-51.63-228.76-64.99 0.02-68.18 13.18-135.94 32.26-201.18 17.45-59.69 47.27-108.49 69.94-164.73 23.53-58.36 54.01-112.51 84.83-167.25 7.53-13.37 83.03-168.87 78.66-169.62 43.77 7.49 77.5 42.14 104.37 77.49 63.11 83.05 93.11 195.58 172.32 263.34 61.53 52.65 141.98 57.75 134.1 164.12-40.77 7.34-82.55 19.96-122.5 37.39" fill="#474ebb"/><path d="m4725.4 5257.2c0.71-12.29-6.1-26.24-10.45-37.4-15.18-38.93-20.14-81.79-14.24-123.15 40.32 0.13 80.66-6.43 118.87-19.34 8.36 30.21 16.71 60.41 25.07 90.61 1.31 4.74 2.7 9.63 5.82 13.44 4.02 4.9 10.27 7.26 16.16 9.6 32.41 12.88 62.61 31.25 88.95 54.11 5.73 4.97 11.45 10.4 14.32 17.42 2.59 6.34 2.61 13.4 2.6 20.25-0.08 54.62-0.17 109.23-0.26 163.85 0 6.1-0.15 12.63-3.63 17.64-3.58 5.15-9.87 7.53-15.78 9.63-9.33 3.31-18.67 6.62-28 9.92-2.6 1.37-5.4 2.38-8.43 2.99-18.98 6.73-23.51 6.2-42.27 0.05-3.64-1.19-44.34-10.33-44.67-6.89 5.61-57.9-10.94-117.67-45.53-164.44-2.36-3.2-5.27-6.6-9.23-6.94-4.2-0.36-7.76 2.87-10.62 5.96-12.76 13.77-23.31 29.57-31.15 46.63-15.06-3.77-30.13-7.54-45.2-11.31-3.98-24.07 4.04-51.02 21.17-68.58 1.81-1.86 3.52-3.37 5.08-4.69 6.51-5.49 10.76-7.85 11.42-19.36" fill="#eacdb0"/><path d="m4877.2 5174.9-188.24 30.83-191.98-525.4-453.55 77.26 98.78-604.53 576.96 345.55 158.03 676.29" fill="#353a85"/><path d="m3385.2 1142.2c-28.63-1.9-54.81 8.16-82.55 11.27 1.32 98 11.94 191.96 33.05 288.71 43.14-47.89 79.47-20.05 78-110.04-0.48-29.13-34.11-145.62-28.5-189.94" fill="#e5d1bd"/><path d="m3296.4 1202.2c-32.55 11.65-39.89-66.08-40.14-84.36-0.15-10.98 1.15-22.18-1.64-32.8-3.07-11.7-10.79-21.53-18.31-30.99-15.76-19.81-31.52-39.62-47.28-59.428-7.08-8.911-14.29-18.032-18.09-28.762-9.41-26.59 6.14-58.121 31.32-70.848 87.36-44.121 167.16 62.738 186.08 133.28 2.9 10.82 5.02 21.82 7.13 32.82 4.37 22.74 21.59 72.33 12.56 94.55-10.53 25.92-42.43 7.14-63.34 16.91-19.39 9.06-35.12 24.91-48.29 29.63" fill="#292949"/><path d="m3917 2756.8c-81.45-221.73-175.43-438.61-229.03-670.72-66.21-286.73-172.96-566.35-227.75-853.72-35.4-1.15-70.88 0.36-106.06 4.51-40.32 4.76-104.33 15.65-118.88 59.68-7.44 22.51 0.45 59.11 1.58 82.49 3.64 74.88 8.98 149.68 14.49 224.44 15.58 211.54 26.27 425.66 65.17 634.2 40.93 219.37 80.13 439.5 116.14 658.85 18.61 113.36 41.53 226.02 69.73 337.4 7.27 28.7 82.93 324.49 97.78 322.13 176.28-28.05 341.2-86.43 494.72-177.47 14.92-8.85 29.32-19.4 34.51-35.15s0.49-29.33-4.32-43.62c-45.88-136.35-107.06-264.21-155.98-400.02-17.02-47.25-34.29-94.5-52.1-143" fill="#5d66d3"/><path d="m3932.4 1158.1c26.77-10.33 54.76-8.52 82.17-13.79 27.88 93.95 45.69 186.82 54.31 285.47-55.43-32.89-81.84 4.49-107.2-81.86-8.21-27.95-10.74-149.18-29.28-189.82" fill="#e5d1bd"/><path d="m4042.6 1172.6c0.07-53.13 41.89-110.34 65.03-158.12 2.72-5.62 5.5-11.47 5.61-17.71 0.16-9.281-5.5-17.52-10.94-25.039-7.54-10.441-15.74-21.41-27.73-26.109-11.79-4.61-25.03-2.301-37.4 0.418-20.68 4.543-41.16 10.019-61.34 16.441-5.03 1.59-10.16 3.309-14.27 6.629-4.85 3.941-7.77 9.711-10.55 15.308-14.28 28.732-26.41 49.122-25.64 81.122 0.79 33.06 4.96 67.31-1.08 100.07-2.99 15.89-6.95 36.21 6.67 44.93 10.52 6.75 29.79-2.55 41.25-4.42 20.21-3.29 38.89-2.04 57.51-12.66 3.79-2.16 7.49-4.76 9.83-8.45 2.37-3.75 3.04-7.98 3.05-12.41" fill="#292949"/><path d="m3904.8 2857.8c11.81-235.92 37.04-470.94 19.18-708.49-22.06-293.45-3.3-592.16-36.46-882.82 33.45-11.63 67.78-20.74 102.6-27.23 39.92-7.46 104.26-16.1 131.25 21.61 13.8 19.28 17.16 56.57 23.02 79.23 18.8 72.57 35.95 145.59 52.92 218.6 48.04 206.59 101.52 414.21 126.4 624.88 26.16 221.62 54.21 443.45 85.06 663.57 15.95 113.78 27.57 228.16 33.77 342.88 1.6 29.56 17.34 334.47 2.45 336.64-176.64 25.64-351.45 18.95-525.11-22.32-16.88-4.01-33.76-9.79-43.4-23.29-9.65-13.5-9.19-27.86-8.85-42.94 3.26-143.81 23.64-284.08 29.95-428.3 2.19-50.17 4.64-100.42 7.22-152.02" fill="#5d66d3"/><path d="m3805.6 4751c-2.87-0.97-5.73-1.99-8.57-3.07-47.42-18-87.76-50.38-127.22-82.26-59.27-47.87-88.46-68.86-111.35-139.76-21.35-66.13-34.71-135.96-47.79-204.1-67.11-349.83-80.08-698.2-128.25-1050.7-13.12-95.94-23.24-208.73 47.71-274.63 125.89 97.98 284.15 103.64 436.84 103.77 107.23 0.1 212.07 34.83 319.55 22.86 54.79-6.1 105.89-1.64 157.47 2.82 45.11 3.9 90.58 7.8 139.22 4.63 25.14-1.63 57.16-1.36 67.07 21.8-36.08 108.14-35.46 224.44-43.62 338.14-21.12 294.12-118.56 576.35-157.88 868.48-13.37 99.3-20.5 264.11-97.39 339.27-83.57 81.68-274.18 83.35-381.57 67.37-21.75-3.23-43.41-7.62-64.22-14.66" fill="#353a85"/><path d="m3885.4 4756c1.76-3.43 4.13-6.72 7.29-9.84 12.48-12.31 29.77-19.29 46.93-21.75 22.62-3.24 45.62 0.52 68.06 4.8 30.33 5.78 29.25 23.54 33.65 51.06 2.4 15.05 3.91 30.2 5.04 45.39 0.62 8.32-2.6 38.12 2.7 43.96 3.6 3.95 18.26 2.62 24.68 5.97 10.18 5.32 18.69 15.11 24.8 24.62 9.86 15.34 15.29 33.03 20.61 50.47 9.24 30.34 18.49 60.69 27.73 91.03 9.45 31.01 18.95 62.27 21.98 94.54 4.57 48.64-3.29 117.3-40 152.87-33.49 32.44-82.35 43.8-127.16 49.53-59.33 7.58-120.83-3.28-172.08-34.78-20.7-12.71-40.32-29.21-52.53-51.88-18.84-34.96-17.41-78.6-15.38-119.41 1.87-37.66 3.74-75.32 5.61-112.99 2.14-43.31 7.54-93.23 40-116.72 17.23-12.48 39.76-15.14 54.51-31.14 18.48-20.03 17.28-50.09 18.05-75.49 0.45-14.52-0.64-28.26 5.51-40.24" fill="#eacdb0"/><g fill="#292949"><path d="m4073.2 5242.8c2.04-3.53 3.75-7.19 5.07-11 6.92-19.97 2.24-42.51 9-62.54 10.7-31.74 47.75-50.82 53.33-83.86 4.57-27.01-13.89-52.7-15.45-80.05-1.7-29.89 17.44-58.17 14.47-87.67-2.58-25.63-18.84-61.64-34.14-82.17 4.75 6.36 47.64 4.09 58.77 10.89 17.05 10.41 18.99 16.98 24.06 34.74 5.04 17.64 1.14 35.03 8.99 53.1 9.62 22.17 29.41 38.44 36.34 62.08 9.46 32.26-7.71 66.3-6.37 99.89 2.03 50.85 45.97 98.75 30.03 147.07-9.36 28.35-36.88 46.47-52.37 72-11.75 19.38-16.09 42.22-24.24 63.37-8.16 21.15-22.17 42.32-43.92 48.73-12.07 3.57-25.07 2.11-37.45 4.41-21.4 3.98-39.18 18.75-59.8 25.73-29.5 9.98-81.54-19.85-98.76-44.86-17.09-24.81-8.46-45.91 9.01-67.85 29.09-36.54 99.41-60.45 123.43-102.01"/><path d="m3675.9 5393c-17.68-12.97-39.5-22.34-55.65-37.5-31.47-29.54-37.46-76.8-38.59-119.96-1.02-38.42-17.82-72.57-13.66-112.62 2.8-26.89 14.23-54.09 36.12-69.97 27.25-19.78 70.05-23.02 82.2-54.43 13.21-34.11-22.13-77.07-0.68-106.7 11.84-16.35 35.03-18.74 51.96-29.73 18.89-12.26 28.6-34.14 40.13-53.48 11.54-19.34 28.87-38.71 51.38-39.19 0.91 34.24 1.92 61.37-12.7 92.68-8.52 18.24-33.61 51.9-14.34 71.65 12.15 16.42 40.84 21.76 41.58 42.17 0.34 9.59-6.35 17.75-11.62 25.76-20.43 31-22.51 72.3-8.66 106.75 13.85 34.44 42.39 61.96 75.8 78.14 39.16 18.96 32.85 28.53 44.23 66.02 10.47 34.5 30.05 42.59 61.11 55.17 27.89 11.29 36.85 18.32 47.15 44.42 7.52 19.1 16.8 41.98 5.87 63.29-8.68 16.94-24.3 29.06-39.44 40.6-31.62 24.11-67.15 49.45-106.81 46.6-22.02-1.59-42.74-11.94-64.79-13.19-14.71-0.83-29.33 2.42-44.05 2.91-25.1 0.84-51.57-6.79-71.89-21.73-20.5-15.07-19.92-30.85-31.31-52.24-5.57-10.47-13.86-18.47-23.34-25.42"/><path d="m3764.7 5533.8c3.85 23.85 1.38 54.94-21.4 62.99-12.48 4.42-26.47-0.42-39.45 2.22-27.64 5.62-37.06 39.11-51.56 63.31-2.17 3.62-4.75 7.29-8.61 9.01-5.52 2.46-11.84 0.28-17.84-0.45-27.51-3.36-48.42 23.79-74.34 33.64-32.07 12.18-72.42-7.87-82.09-40.79-3.97-13.53-3.27-28.06-7-41.66-15.1-55.08-95.76-78.52-97.81-135.6-1.37-38.57 36.38-75.52 21.7-111.22-9.38-22.83-38.75-38.39-35.39-62.84 2.16-15.73 18.91-26.44 34.79-26.22 15.87 0.22 30.46 8.93 42.42 19.38 18.98 16.58 33.29 37.85 51.37 55.4 18.09 17.56 42.2 31.79 67.21 28.67 24.22-3.02 46.14-21.88 70.21-17.85 19.26 3.23 33.55 20.41 52.47 25.25 17.7 4.53 36.1-2.42 54.33-3.52 18.24-1.1 40.64 8.39 41.12 26.65 0.12 4.42-1.12 9 0.27 13.2 3.89 11.77 24 11.1 27.82 22.89-9.52 14.68-22.94 9.42-29.77 28.59-5.28 14.82-0.87 33.96 1.55 48.95"/></g><path d="m3662.9 1831.4h3753.9v2606.3h-3753.9z" fill="#8cabef"/><path d="m3750.4 3775.9v578.91h896c-386.69 0-716.16-217.62-841.71-522.58-17.25-17.9-35.35-36.67-54.29-56.33" fill="#9cb4ee"/><path d="m7416.8 1831.4h-2113c1917.8 0 2113 1334.2 2113 1334.2v-1334.2" fill="#7c93da"/><path d="m7031.5 6253.4c-0.16 0.95-0.28 1.91-0.46 2.86l1.64-1.46-1.18-1.4" fill="#c1c1c1"/><g fill="#292949"><path d="m1790.7 994.41-6.01-84.461 162.9-96.469 90.46 78.442-78.44 90.457-162.9 96.481-6.01-84.45"/><path d="m1706.8 3562.6-18.26-256.49 262.88-1135.8-167.65-1148.1 165.14-45.43 487.94 1373.8 16.46 415.97-97.65 857.71-648.86-61.68"/><path d="m2767.2 3411.2 104.36-1075.7-84.41-1405.6-156.02-13.32-207.88 1272.6-322.84 1262.8 666.79-40.75"/><path d="m2630.4 935.24 7.2-84.359 175.92-69.957 77.16 91.558-91.55 77.161-168.73-14.403"/></g><path d="m1556.8 3428.4c-12.33-97.85-22.97-230.34 14.2-239.08 6.97-1.64 14.1 1.14 20.62 3.87 68.84 28.81 120.13 74.09 187.92 101.79 71.05 29.03 150.03 40.18 226.93 45.74 115.06 8.91 231.81 9.72 347.06-0.21 90.61-7.81 180.68-24.95 269.96-41.79 74.28-14.02 141.69-43.46 218.57-46.1 78.8-2.69 158.35 13.27 229.49 47.43 2.61 1.25 5.37 2.69 6.67 5.28 1.42 2.82 0.68 6.2-0.09 9.27-11.44 45.45-18.42 90-43.68 129.28-28.2 43.86-45.89 97.7-64.52 146.23-38.85 101.14-74.37 206.6-97.86 312.49-37.11 144.47-81.95 286.09-117.3 430.84-24.5 100.33-45.79 202.07-83.13 298.65-29.25 75.63-83.77 187.33-159.29 227.13-25.55 13.47-54.87 17.49-83.51 21.3-86.88 11.54-173.76 23.09-260.64 34.64-31.67 4.21-64.64 8.31-94.95-1.77-45.44-15.11-74.7-58.14-100.55-98.43-115.95-180.68-198.6-379.87-254.95-588.29-29.42-108.83-57.52-218.01-81.98-327.99-27.3-122.73-50.14-246.49-65.21-371.26-1.67-13.86-7.91-52.53-13.76-99.02" fill="#d67086"/><path d="m2247.4 4419.7c-1.84-49.72-14.01-98.4-26.12-146.67-73.76-294-147.52-588.01-221.28-882.01 234.18-22.25 468.36-44.5 702.55-66.75 3.13 112.7 6.27 225.4 9.4 338.09 2.02 72.25 4.01 144.76-3.81 216.68-12.64 116-50.52 227.89-88.16 338.73-69.56 204.8-139.12 409.61-208.68 614.41-3.71 10.96-7.65 22.28-15.73 30.72-9.67 10.11-23.83 14.64-37.43 18.48-65.68 18.57-140.18 36.23-208.41 33.35-23.16-59.44 27.79-172.25 44.85-231.55 24.83-86.3 56.2-172.65 52.82-263.48" fill="#f7f7f7"/><path d="m2334.8 4840.9c-48.29 7.14-96.56 14.28-144.84 21.42 1.4 38.89 5.91 77.66 13.47 115.84-0.92-4.64-74.28 44.33-80.18 54.33-16.99 28.77-14.64 73.88-19.56 106.52-10.49 69.54-19.03 147.49 22.99 203.87 43.52 58.39 125.91 71.37 198.52 65.74 91.15-7.06 189.91-44.1 228.57-126.96 34.91-74.84-29.15-173.23-52.1-246.16-11.31-35.96-27.11-76.7-62.85-88.66-18.98-6.36-40.87-3.18-58.26-13.1-30.65-17.49-28.77-61.91-45.76-92.84" fill="#eacdb0"/><path d="m2711 5401.5c10.62 49.69 21.24 99.38 31.87 149.07 3.94 18.46 7.89 37.62 3.7 56.02-6.97 30.6-35.07 52.19-64.36 63.47-29.28 11.28-60.98 14.88-90.77 24.76-31.8 10.54-61.93 28.32-95.37 30.31-63.59 3.78-118.14-49.9-181.75-53.41-88.07-4.85-163.5 43.1-226.4-53.42-11.55-17.74-16.45-39.03-26.93-57.42-13.53-23.76-35.5-41.33-53.39-62.01-78.68-90.91-71.97-241.98 2.44-333.67 36.07-44.46 48.75-82.6 102.88-101.28-20.05 54.27 34.84 256.45 106.77 272.31 19.06 4.19 72.03-24.08 92.13-29.18 44.5-11.29 87.68-23.1 128.37-45.12 60.38-32.68 126.95-58.31 194.71-70.5 8.67-1.56 18.4-2.9 25.59 2.18 6.77 4.78 8.99 13.65 10.72 21.75 13.26 62.05 26.53 124.09 39.79 186.14" fill="#292949"/><path d="m5248 6476.3c-34.29 229.24 122.46 442.89 350.71 479.64-1.39 7.16-2.71 14.34-3.8 21.62-41.87 279.99 151.16 540.91 431.14 582.78 152.34 22.79 298.95-24.09 407.78-116.56 71.29 110.8 188.03 191.57 328.56 212.59 250.13 37.4 483.74-127.92 534.25-372.6 10.47 2.38 21.05 4.52 31.84 6.13 230.84 34.53 445.95-124.61 480.48-355.45 27.76-185.69-69.84-361.13-229.22-440.65 28.18-45.68 47.8-97.66 56.24-154.1 33.41-223.39-120.59-431.56-343.98-464.97-17.13-2.56-34.16-3.97-51.04-4.37l64.71-432.66c2.53-18.8-20.43-29.9-28.67-21.36l-331.77 343.73c-57.62-52.02-130.58-88.3-213.12-100.65-149.67-22.38-292.44 39.46-380.45 149.84-62.91-53.84-141.15-91.32-229.09-104.48-249.45-37.3-481.91 134.68-519.22 384.13-1.63 10.85-2.71 21.65-3.55 32.42-177.35 28.06-323.84 167.97-351.8 354.97" fill="#5d66d3"/><g fill="#fff"><path d="m6051.3 6551.1c61.72 9.23 76.17-86.68 14.34-95.93-61.72-9.23-76.17 86.68-14.34 95.93"/><path d="m6483 6615.6c61.73 9.23 76.18-86.68 14.35-95.93-61.72-9.23-76.17 86.68-14.35 95.93"/><path d="m7022.6 6696.4c61.73 9.23 76.17-86.68 14.35-95.93-61.72-9.23-76.17 86.68-14.35 95.93"/><path d="m7103.1 3913.9c-52.71-42.08-105.42-84.16-158.12-126.24 26.82-41.1 53.11-82.55 78.54-124.59 12.73-21.06-21.56-37.66-34.17-16.8-24 39.7-48.82 78.83-74.12 117.64-51.33-40.98-102.67-81.96-153.99-122.94-19.15-15.28-44.04 13.61-24.83 28.95 52.63 42.03 105.27 84.04 157.9 126.07-30.91 46.49-62.73 92.37-95.54 137.61-14.34 19.76 14.37 44.86 28.8 24.95 33.11-45.65 65.21-91.96 96.43-138.86 51.42 41.05 102.85 82.11 154.27 123.16 19.14 15.28 44.04-13.62 24.83-28.95"/><path d="m4389.3 3074.6c2.49-1.05 5.25-1.47 8.1-1.28 3.88-0.64 7.74-1.21 11.62-2.1 234.22-53.27 153.81-443.14-78.96-406.21 10.02 12.88 1.74 36.61-17.32 30.83-138.83-42.13-164.01 166.9-130.04 253.53 33.3 84.9 117.9 136.13 206.6 125.23zm2524.8 285.07c-11.55 70.83-30.08 138.99-55.35 206.07-5.58 14.82-24.41 12.14-32.74 2.44-50.66-59-90.91-123.11-122.96-193.98-8.32-18.4 16.58-31.98 30.33-20.91 17.98 14.49 34.35 29.97 49.51 46.32-87.57-280.74-172.34-625.87-489.19-690.78-283.41-58.06-443.2 258.4-566.14 459.62-105.46 172.61-217.4 359.59-393.68 467.96-188.32 115.75-420.16 107.78-611.49 3.24-192.96-105.45-347.41-298.99-343.16-525.6-120.39 6.98-224.2-80.6-246.1-201.06-18.45-101.48 33.03-265.8 151.04-260.91-1.31-7.98 2.07-16.17 12.27-18.8 133.51-34.62 260.63 50.57 287.47 185.65 24.48 123.2-40.5 260.47-166.75 289.5-12.96 308.26 304.3 568.24 595.7 575.46 481.57 11.93 632.81-535.04 887.42-840.93 76.08-91.4 172.98-167.68 295.06-178.07 113.91-9.7 223.58 37.19 310.61 108.58 211.67 173.61 255.81 457.1 342.25 703.84 12-40.96 21.64-82.44 28.58-125.05 3.96-24.29 41.27-16.85 37.32 7.41"/></g><g fill="#d67086"><path d="m4194 2802.5c-2.21 11.76-3.11 23.87-3.35 35.82-2.76 138.72 68.72 231.06 211.41 197.57 73.46-17.24 116.13-109.77 115.79-178.93-0.24-46.47-14.27-97.59-53.51-122.17-63.85-39.98-214.75-44.62-257.44 30.89-6.45 11.41-10.46 23.9-12.9 36.82"/><path d="m5280.9 4568.2-1001.6 1419.7-100.41-70.84 1001.6-1419.7 100.41 70.84"/><path d="m5481.7 4709.8-1001.6 1419.7-100.42-70.84 1001.6-1419.7 100.42 70.84"/></g><path d="m5381.3 4639-1001.6 1419.7-100.41-70.85 1001.6-1419.7 100.41 70.85" fill="#fff"/><path d="m4159.7 5944.1 19.11-27.08 301.24 212.53-19.11 27.08-301.24-212.53" fill="#babcbe"/><path d="m4140.6 5971.2 19.11-27.08 301.24 212.53-19.11 27.09-301.24-212.54" fill="#f7f7f7"/><path d="m4121.5 5998.3 19.11-27.09 301.24 212.54-19.11 27.08-301.24-212.53" fill="#babcbe"/><path d="m3980.3 6198.5 122.13-173.11 301.24 212.53-122.13 173.11c-48.43 68.64-143.33 85.02-211.97 36.6l-52.67-37.16c-68.64-48.43-85.03-143.33-36.6-211.97" fill="#e8e8e8"/><path d="m4102.4 6025.4 19.1-27.08 301.24 212.53-19.1 27.08-301.24-212.53" fill="#f7f7f7"/><path d="m5481.7 4709.8-301.23-212.53 412.53-264.97z" fill="#eed5d5"/><path d="m5567 4344-70.41-49.68 96.42-61.93z" fill="#292949"/><path d="m3327.5 2296.5c-154.05 5.73-313.4 11.96-457.2 17.69l1.28 21.36-46.6 480.38c178.99 185.61 385.55 399.87 575.13 596.54-5.4-47.02-11.22-94.14-17.66-141.29-13.12-95.94-23.24-208.73 47.71-274.63 7.67 5.97 15.47 11.6 23.37 16.9-7.48-38.87-14.41-77.86-20.82-116.92-32.79-199.75-68.23-400.15-105.21-600.03" fill="#ced0d6"/><path d="m3662.9 2284.6c-102.44 3.38-217.37 7.49-335.4 11.88 36.98 199.88 72.42 400.28 105.21 600.03 6.41 39.06 13.34 78.05 20.82 116.92 64 42.96 135.29 64.72 209.37 75.72v-804.55" fill="#545eb5"/><path d="m3430.1 2996.6c-70.95 65.9-60.83 178.69-47.71 274.63 6.44 47.15 12.26 94.27 17.66 141.29 93.5 97 182.88 189.73 262.79 272.63v-595.93c-74.08-11-145.37-32.76-209.37-75.72-7.9-5.3-15.7-10.93-23.37-16.9" fill="#373d7a"/><path d="m4018.3 2275.7c-62.47 0-193.35 3.54-355.45 8.9v1400.5c30.67 31.81 59.93 62.18 87.51 90.79v-217.23c0 96.1 19.17 188.26 54.29 273.56 120.05 124.56 196.6 203.99 196.6 203.99 65.19-64.31 77.52-1745.6 56.62-1758.8-1.79-1.14-15.66-1.66-39.57-1.66" fill="#7891ca"/><path d="m3750.4 3558.7v217.23c18.94 19.66 37.04 38.43 54.29 56.33-35.12-85.3-54.29-177.46-54.29-273.56" fill="#8498c9"/><path d="m2386.2 2334c-16.51 0.69-25.4 1.07-25.4 1.07 4.22 4.34 10.92 11.25 19.89 20.51l5.51-21.58" fill="#2e304d"/><path d="m2870.3 2314.2c-228.48 9.12-417.7 17.02-484.05 19.81l-5.51 21.58c62.39 64.46 234.38 242.73 444.24 460.35l46.6-480.38-1.28-21.36" fill="#2e304d"/><path d="m3999.4 2335.1h-1720.4c39.65 260.61 68.07 568.42 64.84 913.74-2.56 273.29-1.37 509.41-41.19 771.13 573.47 0 1123.3 35.56 1696.8 35.56 24.39-240.28 40.66-502.38 43.2-783.54 3.06-340.53-14.54-654.42-43.2-936.89" fill="#474ebb"/><g fill="#fff"><path d="m2893.4 2999.5c-82.03-74.31-178.66-129.9-282.87-166.27-15.81 253.59 32.88 507.29 6.61 760.74 98.03 41.94 208.37 74.09 307.11 22.37 104.63-54.81 140.49-205.05 139.63-314.03-0.97-123.71-82.96-223.52-170.48-302.81zm195.58 351.96c-12.24 112.92-52.47 245.29-164.68 295.53-128.36 57.47-265.95-2.35-383.56-57.2-16.18-7.55-2.1-31.5 14.02-23.98 11.62 5.42 23.53 10.93 35.66 16.41 24.01-253.63-24.66-507.49-6.72-761.25-3.63-5.49-2.69-13.2 1.39-17.92 0.47-5.61 0.76-11.21 1.3-16.81 1.69-17.64 29.48-17.81 27.77 0-0.58 6.07-0.91 12.14-1.41 18.22 227.14 77.82 505.2 279.65 476.23 547"/><path d="m3419.7 2955.2c-19.89-91.15-93.3-176.38-192.63-176.27-122.97 0.13-148.77 130.35-127.79 228.34 9.49 44.36 30.47 86.29 65.15 116.25 20.54 17.74 55.71 37.94 88.71 41.98 2.53-5.57 8.25-9.79 15.9-8.17 8.29 1.77 16.23 2.69 23.89 2.98 3.08-1.46 6.09-3.14 8.93-5.22 6.91-5.07 13.67-2.14 17.29 3.4 82.9-15.72 118.24-122.22 100.55-203.29zm-119.48 232.44c-41 16.36-96.52-3.59-130.75-25.72-51.39-33.23-84.36-88.02-96.97-147.26-23.53-110.53 6.41-252.49 139.64-262.92 128.36-10.05 225.48 105.57 239.07 224.8 11.38 99.89-48.95 207.96-150.99 211.1"/><path d="m3676.6 2871-1.62 2.18c-15.98 16.54-37.56 6-46.48-10.95-8.36-10.93-15.21-22.95-13.3-37.39 2-15.11 13.72-28.24 29.76-27.99 16.99 0.27 29.61 14.03 34.1 29.44 6.48 6.36 10.22 15.51 8.27 26.59-1.29 7.29-5.27 13.71-10.73 18.12"/><path d="m3679.6 3400.6c1.99-1.5 4.36-2.29 6.84-2.43-2.96-14.93-6.12-28.96-7.54-39.84 0.22 14.09 0.43 28.18 0.7 42.27zm2.2 92.85c1.19-0.12 2.38-0.24 3.56-0.38-0.87-1.7-1.56-3.54-1.76-5.65-0.49-5.06-1.34-9.89-2.29-14.65 0.18 6.89 0.3 13.78 0.49 20.68zm58.41 4.54c-12.95 23-48.78 22.76-71.95 23.98-7.65 0.4-13.68-6.7-13.89-13.89-4.74-163.37-5.97-326.8-3.69-490.23 0.14-10.06 9.02-14.47 16.71-13.2 1.65-17.02 27.19-17.02 27.66 0.7 3.22 121.2 13.25 242.08 31.5 361.97 4.05 26.57 8.53 53.07 13.24 79.53 2.88 16.16 9.15 35.63 0.42 51.14"/></g><path d="m2691 3525c-1.08 3.03-2.21 6.15-4.04 8.67-17.07 23.43-39.99 25.43-62.75 43.23-10.15 7.94-7.17 40.95-32.6 32.17-9.39-3.23-31.3-14.42-51.25-21.52-29.09-10.34-72.22-5.87-105.8 4-45.15 13.26-92.62 28.34-134.93 48.04-88.89 41.38-183.28 97.23-262.78 154.84 89.28 135.52 94.25 321.93 12.32 462.03-8.56 14.64-18.45 29.25-32.93 38.09-12.24 7.47-26.81 10.19-41.12 11.12-151.35 9.83-154.19-133.99-161.33-249.79-4.45-72.27-4.39-145.92 1.86-218.1 8.76-101.09 74.07-159.15 160.45-207.27 91.56-50.99 185.21-101.01 285.92-131.5 48.94-14.82 97.15-19.37 147.12-27.6 49.38-8.14 42.99-29.67 84.39-47.89 23.1-10.16 44.73-24.88 69.41-30.6 44.25-10.24 79.83 20.33 113.55 43.98 8.4 5.89 14.09 9.85 18.47 18.4 7.11 13.92 4.41 28.84 2.25 43.75-1.27 8.82-3.26 17.59-6.21 25.95" fill="#e5d1bd"/><path d="m1737.1 3999.9c2.29-55.9 6.94-110.65 13.48-163.21 9.75-78.36 22.72-163.36 80.01-217.7 22.08-20.95 49.23-35.63 76.11-49.92 127.42-67.73 256.53-132.26 387.18-193.51 47.62 58.96 86.24 125.18 114.09 195.67 7.82 19.78 14.85 41.74 8.14 61.92-9.96 29.98-44.66 42.57-75.05 51.21-49.5 14.09-99 28.17-148.5 42.26-16.06 4.57-33.64 10.27-42.14 24.64-5.55 9.39-6.11 20.81-6.35 31.71-4.59 206.11 31.71 378.34 79.52 577.25 21.05 87.69 42.21 178.7 24.72 267.17-37.36 188.89-286.03 238.07-380.83 62.87-108.09-199.76-140.04-455.33-130.38-690.36" fill="#d67086"/><path d="m7127.3 3887.9c8.72 9.87 11.48 13.56 25.64 19.94 14.17 6.37 31.02 8.56 47.88 19.67 12.24 8.06 9.15 37.48 37.47 26.31 10.46-4.12 28.72-17.24 48.7-24.85 29.13-11.12 70.64-10.17 105.74-2.46 137.89 30.31 276.48 58.04 417.66 72.25 8.05 0.8 16.04 1.36 22.81 6.12 12.12 8.54 13.73 22.45 16.82 36.1 14.34 63.28 30.52 125.28 56.72 185.02 23.38 53.29 51.01 104.05 96.01 141.74 44.99 37.69 104.38 56.58 159.69 38.9 41.42-13.23 75.8-42.11 84.4-85.29 21.34-107.08-77.03-187.18-136-262.25-55.79-71.02-103.49-131.26-161.91-196.38-7.21-8.04-14.08-15.55-24.18-20.12-10.11-4.58-21.82-4.84-32.8-4.7-141.42 1.87-279.23 7.31-417.69-21.4-38.05-7.89-72.78 0.16-108.59-12-22.86-7.76-34.8-30.42-55.81-41.27-21.02-10.85-45.85-21.87-69.39-23.45-46.42-3.14-74.96 30.97-106.59 59.04-25.26 22.43-44.43 28.9-77.31 20.15-3.86-1.03-8.04-3.52-12.44-2.54-12.76 2.83-18.19 17.78-11.57 29.06 6.61 11.28 18.34 14.63 30.49 18.77s25.87 7.58 39.04 8.33c5.64 0.31 11.95 0.08 16.05 4.08 4.1 3.99 5.48 7.05 9.16 11.23" fill="#e5d1bd"/><path d="m8109.3 4098.1c-79.66 30.14-163.17 48.57-240.8 85.06 28.16 67.6 109.6 342.63 123.61 375.56 53.51 125.68 63.86 179.83 137.6 246.19 157.46 141.72 344.44 47.74 336.75-153.4-8.33-218.35-125.33-405.78-252.06-574.66-2.76-3.67-6.51-6.54-11.3-8.33-4.8-1.8-12.16 0.02-17.95 2.3-24.77 9.77-50.7 17.76-75.85 27.28" fill="#aab4b5"/><path d="m8159.2 1094c-27.87-0.94-54.65 5.31-82.02 7.84-14.12 271.35 11.52 555.73 22.64 828.37 69.71-3.72 139.42-7.44 209.12-11.16-48.54-145.71-83.19-296.03-103.46-448.27-3.21-24.12-42.31-376.65-46.28-376.78" fill="#e5d1bd"/><path d="m8068.8 1154.5c-17.2 3.07-27.35-4.59-38.82-15.07-6.66-6.09-11.2-14.7-19.23-19.06s-15.92-5.21-25.47-6.17c-50.28-5.05-166.13-2.95-104.42-87.06 56.05-76.379 204.91-45.969 290.9-25.22 5.66 1.36 11.63 2.21 15.77 6.59 4.15 4.37 6.94 10.61 8.71 17.07 9.81 35.94 23.22 80.81-20.97 95.87-18.84 6.42-36.21-6.06-56.16 0.86-16.35 5.67-33.1 29.13-50.31 32.19" fill="#292949"/><path d="m7943.6 1766.6c142.16 2.76 284.31 5.51 426.47 8.27 114.99 547.43 216.26 1097.7 303.68 1650.2 6.78 42.83 13.38 87.38 1.03 128.96-23.34 78.63-107.56 123.5-188.19 138.57-125.31 23.41-355.54-9.19-419.79-139.47-67.91-137.69-56.51-383.59-72.98-535.73-44.94-415.18-61.77-833.4-50.22-1250.8" fill="#292949"/><path d="m8972.2 1094c27.87-0.94 54.65 5.31 82.02 7.84 14.13 271.35-11.51 555.73-22.64 828.37-69.7-3.72-139.41-7.44-209.12-11.16 48.54-145.71 83.2-296.03 103.46-448.27 3.22-24.12 42.31-376.65 46.28-376.78" fill="#e5d1bd"/><path d="m9062.7 1154.5c17.21 3.07 27.35-4.59 38.83-15.07 6.66-6.09 11.19-14.7 19.22-19.06 8.04-4.36 15.92-5.21 25.47-6.17 50.29-5.05 166.14-2.95 104.42-87.06-56.05-76.379-204.91-45.969-290.9-25.22-5.65 1.36-11.62 2.21-15.77 6.59-4.14 4.37-6.94 10.61-8.7 17.07-9.81 35.94-23.23 80.81 20.96 95.87 18.85 6.42 36.21-6.06 56.16 0.86 16.35 5.67 33.1 29.13 50.31 32.19" fill="#292949"/><path d="m9187.9 1766.6c-142.16 2.76-284.31 5.51-426.46 8.27-115 547.43-216.27 1097.7-303.69 1650.2-6.77 42.83-13.37 87.38-1.03 128.96 23.35 78.63 107.57 123.5 188.2 138.57 125.31 23.41 355.53-9.19 419.78-139.47 67.92-137.69 56.52-383.59 72.99-535.73 44.94-415.18 61.77-833.4 50.21-1250.8" fill="#292949"/><path d="m8823.4 4768.4c113.97-108.46 199.33-247.8 250.76-392.13 91.05-255.58 92.8-528.48 93.64-795.89 0.28-89 0.55-178 0.83-267 0.29-87.57-7.46-106.42-102.63-94.87-176.35 21.39-359.68 57.74-519.46 136.11-76.04 37.29-147.1 84.39-226.82 113.76-115.96 42.71-234.86 23.37-349.58 51.16 49.81 150.56 85.45 278.8 111.01 433.92 26.32 159.73 50.25 333.96 88.83 491.54 23.14 94.56 66.18 182.9 109.97 269.84 29.43 58.45 60.59 118.26 110.57 160.51 150.54 127.24 319.34 1.11 432.88-106.95" fill="#474ebb"/><path d="m8412.2 5143.4c21.52-47.04 56.69-86.25 85.41-129.29 27.94-41.86 37.99-79.74 45.4-128.29 5.35-35.06 17.88-62.47 60.12-68.47 79.65-11.32 56.87 54.5 74.97 102.37 20.68 54.73 64.78 97.97 95.6 146.82 89.06 141.15 63.64 420.13-121.47 479.67-202.39 65.09-305.35-260.04-240.03-402.81" fill="#e5d1bd"/><path d="m8734.8 5280c22.97-0.93 48.25-2.74 65.29-18.18 17.04-15.43 15.19-49.09-7.31-52.73-20.39-3.29-46.8 17.98-59.25 2.45-7.28-9.08-0.89-22.36 4.63-32.98 21.2-40.74 27.55-87.98 17.66-131.38 8.38-7.78 21.47 0.29 28.84 8.39 36.6 40.19 65.19 87.14 83.91 137.8 7.35-12.26 18.13-22.7 30.84-29.86-7.62 19.04-2.79 39.88 1.91 59.31 17.3 71.4 29.07 155.05-20.79 213.4-26.68 31.21-67.25 49.18-108.05 56.72-40.8 7.55-82.38 5.72-123.5 3.86-17.59-0.8-39.26-4.59-43.49-20.87 38.58-15.47 78.5-45.6 97.82-82.14 5.93-11.21 29.14-113.69 31.49-113.79" fill="#292949"/><path d="m8653.2 5451.5c1.41-1.02 2.79-2.05 4.14-3.08 17.49-13.31 33.89-29.5 55.06-35.4 30.5-8.51 63.27 6.19 93.3-4.2 33.58-11.62 55.64-51.76 80.15-75.52 40.18-38.96 90.01-67.6 143.49-83.88 27.32-8.32 55.62-13.42 84.13-15.04 12.93-0.73 30.22-3.18 42.82 0.22 16.92 4.55 16.34 12.24-1.69 18.01-56.51 18.11-74.22 97.48-69.95 150.09 3.37 41.53 17.7 84.94 1.86 123.47-12.1 29.44-38.08 44.64-63.2 61.48-27.7 18.57-57.73 13.57-89.18 22.5-32.81 9.32-59.54 35.16-93.01 41.75-35.34 6.96-70.67-8.71-106.04-15.58-29.22-5.68-59.6-5.3-88.67 1.09-26.04 5.73-51.46 16.28-78.13 16.03-39.33-0.37-75.5-24.91-98.46-56.85-32.46-45.19-53.45-122.5-42.01-181.99-1.78 9.23 29.29 42.68 35.68 49.87 13.49 15.19 29.78 29.42 50.37 31.87 46.61 5.56 101.87-17.63 139.34-44.84" fill="#292949"/><path d="m7700 2701.8-10.77-118.27c-3.49-38.41 21.49-72.08 55.79-75.21l277.48-25.24c34.31-3.12 64.96 25.49 68.46 63.9l10.75 118.26-401.71 36.56" fill="#b1b1b2"/><path d="m8718.2 4210.2c37.85 416.06-232.7 780.75-604.29 814.57-371.6 33.81-703.53-276.07-741.38-692.13-13.46-147.85 12.07-289.19 67.2-411.52h-0.03c155.27-368.29 171.76-666.43 171.76-666.43l677.16-61.62s70.04 290.27 289.23 624.49h-0.03c76.31 110.38 126.92 244.79 140.38 392.64" fill="#d67086"/><path d="m7603.6 3255.4-45.71-502.39c-1.91-20.99 11.38-39.35 29.68-41.02l626.47-57c18.3-1.67 34.68 14 36.59 34.99l45.71 502.38-692.74 63.04" fill="#ddd"/><path d="m8006.3 3218.8-56.26 5.12-338.58 30.81s-0.02 0.43-0.06 1.13c0.04-0.75 0.06-1.13 0.06-1.13l394.84-35.93" fill="#d8d6e7"/><path d="m8288.6 3193.1-282.32 25.69 282.32-25.69" fill="#2d2b55"/><path d="m8288.6 3193.1-677.16 61.62s-0.02 0.38-0.06 1.13c-0.02 0.27-0.04 0.58-0.06 0.93 518.31 189.33 902.8 737.04 1107.7 1095.6 3.58-46.42 3.5-93.91-0.88-142.14-13.46-147.85-64.07-282.26-140.38-392.64h0.03c-4.5-6.86-8.93-13.69-13.3-20.51-208.62-325.31-275.86-603.66-275.93-603.98" fill="#b76486"/><path d="m7525 3925.8c-66.24 117.93-99.02 261.08-85.29 412 31.39 345.05 294.46 606.44 598.82 606.44 16.03 0 32.19-0.72 48.43-2.2 217.8-19.82 395.85-169.85 479.34-376.24-93.2 165.91-252.65 281.89-442.27 299.14-16.26 1.48-32.38 2.2-48.43 2.2-304.33 0-567.43-261.41-598.82-606.44-10.86-119.37 7.36-233.88 48.22-334.9" fill="#ebb8c3"/><path d="m7819.2 3235.8 6.23 971.72 103.96-116.07 115.08 166.75 84.95-179.3 120.86 90.88-169.41-957.79 34.75-3.17 184.84 1045.1-157.99-118.82-92.16 194.53-123.86-179.44-135.19 150.98-6.81-1062.2 34.75-3.16" fill="#f6f7f7"/><path d="m7785.1 3335.9-0.62-96.9 34.75-3.16 0.77 119.7c-11.56-6.71-23.18-13.27-34.9-19.64" fill="#edeced"/><path d="m8150.6 3606.4-69.76-394.36 34.75-3.17 77.61 438.79c-14.02-13.92-28.22-27.68-42.6-41.26" fill="#edeced"/><path d="m8276.6 2974.9-692.75 63.03 8.44 92.77 692.75-63.03-8.44-92.77" fill="#c4c4c4"/><path d="m8258.6 2776.8-692.75 63.03 8.44 92.77 692.75-63.03-8.44-92.77" fill="#c4c4c4"/><g fill="#c2c2c4"><path d="m7954.1 2898 312.95-28.48 9.59 105.36-193.06 17.56c-44.02-36.32-87.34-67.55-129.48-94.44"/><path d="m8285 3067.7 11.35 124.74-10.9 1c-15.92-23.16-54.25-64.95-107.68-115.98l107.23-9.76"/><path d="m7587.6 2712 626.47-57c18.3-1.67 34.68 14 36.59 34.99l7.9 86.74-452.33 41.15c-96.42-43.24-181.61-64.43-248.01-74.45 2.2-16.71 13.95-30.02 29.38-31.43"/></g><path d="m8083.6 2992.5 193.06-17.56 8.44 92.77-107.23 9.76c-31.66-30.99-63.14-59.29-94.27-84.97" fill="#b1b1b2"/><path d="m7806.2 2817.9 452.33-41.15 8.44 92.77-312.95 28.48c-51.34-32.76-100.9-59.05-147.82-80.1" fill="#b1b1b2"/><path d="m8095.2 2593.4c-85.8-77.12-237.78-88.98-287.81-90.76l215.13-19.57c34.31-3.12 64.96 25.49 68.46 63.9l4.22 46.43" fill="#9e9e9e"/><path d="m8261 3669.2c0.94 2.63 1.94 5.34 3.54 7.52 14.88 20.3 34.8 21.97 54.61 37.37 8.84 6.87 6.34 35.54 28.41 27.85 8.15-2.83 27.14-12.61 44.45-18.83 25.24-9.07 62.71-5.31 91.9 3.17 39.24 11.39 80.51 24.36 117.32 41.34 38.52 17.78 76.09 37.59 112.77 58.89 30.56 17.75 79.07 38.1 102.18 65.1 39.08 45.68-6.18 157.02-11.32 214.06-5.36 59.45-0.16 234.58 80.08 239.54 131.48 8.11 133.54-116.81 139.41-217.41 3.67-62.77 3.41-126.74-2.23-189.41-7.89-87.77-64.77-138.01-139.93-179.56-79.66-44.03-161.14-87.21-248.69-113.41-42.54-12.73-84.43-16.54-127.85-23.56-42.91-6.93-37.43-25.64-73.43-41.34-20.09-8.77-38.92-21.49-60.37-26.38-38.46-8.77-69.28 17.88-98.5 38.51-7.28 5.14-12.2 8.59-15.98 16.03-6.14 12.11-3.75 25.06-1.84 38 1.13 7.66 2.89 15.27 5.47 22.52" fill="#e5d1bd"/><path d="m9022 4093.9c-74.33-14.41-148.66-28.82-222.99-43.22 4.78 0.92-86.01 333.27-90.73 353.24-18.04 76.22-36.16 155.33-20.72 232.11 32.98 163.95 112.01 204.3 211.59 32.03 93.99-162.6 241.31-357.27 212.14-542.34-0.64-4.02-1.39-8.23-3.94-11.41-3.49-4.36-9.45-5.7-14.94-6.76-23.47-4.55-46.94-9.1-70.41-13.65" fill="#474ebb"/></g></g></svg>
